<svg width="79" height="60" viewBox="0 0 79 60" fill="none" xmlns="http://www.w3.org/2000/svg">
<path d="M10.9719 50.3325C10.3363 50.3325 9.82097 50.8478 9.82097 51.4834C9.82097 52.2026 9.23586 52.7877 8.51662 52.7877C7.79739 52.7877 7.21228 52.2026 7.21228 51.4834C7.21228 50.7641 7.79739 50.179 8.51662 50.179C9.15222 50.179 9.66752 49.6637 9.66752 49.0281C9.66752 48.3925 9.15222 47.8772 8.51662 47.8772C6.52818 47.8772 4.91049 49.4949 4.91049 51.4834C4.91049 53.4718 6.52818 55.0895 8.51662 55.0895C10.5051 55.0895 12.1228 53.4718 12.1228 51.4834C12.1228 50.8478 11.6075 50.3325 10.9719 50.3325Z" fill="#2F2F2F"/>
<path d="M57.6215 50.3325C56.9859 50.3325 56.4706 50.8478 56.4706 51.4834C56.4706 52.2026 55.8855 52.7877 55.1662 52.7877C54.447 52.7877 53.8619 52.2026 53.8619 51.4834C53.8619 50.7641 54.447 50.179 55.1662 50.179C55.8018 50.179 56.3171 49.6637 56.3171 49.0281C56.3171 48.3925 55.8018 47.8772 55.1662 47.8772C53.1778 47.8772 51.5601 49.4949 51.5601 51.4834C51.5601 53.4718 53.1778 55.0895 55.1662 55.0895C57.1547 55.0895 58.7724 53.4718 58.7724 51.4834C58.7724 50.8478 58.2571 50.3325 57.6215 50.3325Z" fill="#2F2F2F"/>
<path d="M23.2481 50.3325C22.9458 50.3325 22.6481 50.4552 22.4348 50.6701C22.2199 50.8834 22.0972 51.1811 22.0972 51.4834C22.0972 51.7857 22.2199 52.0834 22.4348 52.2967C22.6481 52.5115 22.9458 52.6343 23.2481 52.6343C23.5504 52.6343 23.8481 52.5115 24.0614 52.2967C24.2762 52.0834 24.399 51.7857 24.399 51.4834C24.399 51.1811 24.2762 50.8834 24.0614 50.6701C23.8481 50.4552 23.5504 50.3325 23.2481 50.3325Z" fill="#2F2F2F"/>
<path d="M20.7928 12.2762C20.4905 12.2762 20.1928 12.399 19.9795 12.6138C19.7647 12.8271 19.6419 13.1248 19.6419 13.4271C19.6419 13.7294 19.7647 14.0271 19.9795 14.2404C20.1928 14.4552 20.4905 14.578 20.7928 14.578C21.0951 14.578 21.3928 14.4552 21.6061 14.2404C21.821 14.0271 21.9437 13.7294 21.9437 13.4271C21.9437 13.1248 21.821 12.8271 21.6061 12.6138C21.3928 12.399 21.0967 12.2762 20.7928 12.2762Z" fill="#2F2F2F"/>
<path d="M40.4348 29.4629C40.1325 29.4629 39.8348 29.5857 39.6215 29.8005C39.4067 30.0138 39.2839 30.3115 39.2839 30.6138C39.2839 30.9176 39.4067 31.2138 39.6215 31.4271C39.8348 31.6419 40.1325 31.7647 40.4348 31.7647C40.7371 31.7647 41.0348 31.6419 41.2481 31.4271C41.4629 31.2138 41.5857 30.9176 41.5857 30.6138C41.5857 30.3115 41.4629 30.0138 41.2481 29.8005C41.0348 29.5857 40.7371 29.4629 40.4348 29.4629Z" fill="#2F2F2F"/>
<path d="M72.7673 9.32992C72.9806 9.54476 73.2783 9.66752 73.5806 9.66752C73.8829 9.66752 74.1806 9.54476 74.3939 9.32992C74.6087 9.11662 74.7315 8.81892 74.7315 8.51662C74.7315 8.21432 74.6087 7.91662 74.3939 7.70332C74.1806 7.48849 73.8829 7.36573 73.5806 7.36573C73.2783 7.36573 72.9806 7.48849 72.7673 7.70332C72.5524 7.91662 72.4297 8.21432 72.4297 8.51662C72.4297 8.81892 72.5524 9.11662 72.7673 9.32992Z" fill="#2F2F2F"/>
<path d="M74.7315 17.3251V13.2107C76.8428 12.6928 78.4143 10.7853 78.4143 8.51647C78.4143 5.85115 76.2459 3.68271 73.5806 3.68271H64.612C64.2058 2.95151 63.4261 2.45509 62.532 2.45509H7.21228V2.37836C7.21228 1.06696 6.14532 0 4.83376 0H2.37852C1.06696 0 0 1.06696 0 2.37852V19.5652C0 20.8768 1.06696 21.9437 2.37852 21.9437H4.83376C6.14532 21.9437 7.21228 20.8768 7.21228 19.5652V14.578H16.0964C16.2927 15.3861 16.6961 16.1322 17.2863 16.7541C18.195 17.7117 19.4731 18.2609 20.793 18.2609H25.128L31.9182 27.3146V34.2967C31.9182 34.9323 32.4335 35.4476 33.0691 35.4476H35.6049C35.6032 35.473 35.601 35.4984 35.601 35.5243V40.4348C35.601 41.154 35.0159 41.7391 34.2967 41.7391H29.3095V39.2231C29.3095 39.2197 29.3095 39.2164 29.3095 39.213V39.2072C29.3095 39.1998 29.3085 39.1926 29.3084 39.1852C29.3078 39.1556 29.3069 39.1258 29.3039 39.0959C29.3021 39.0767 29.2987 39.0582 29.296 39.0393C29.2932 39.021 29.2912 39.0029 29.2877 38.9846C29.2818 38.9547 29.2742 38.9254 29.266 38.8964C29.2642 38.8898 29.2631 38.8831 29.2611 38.8763L29.2596 38.8711C29.2585 38.8677 29.2576 38.8642 29.2565 38.8608L26.1032 28.3499C25.6419 26.8128 24.2538 25.7801 22.649 25.7801H6.06138C4.07294 25.7801 2.45524 27.3977 2.45524 29.3862V38.2456C1.02967 38.7272 0 40.0763 0 41.6624V51.4834C0 56.1795 3.82051 60 8.51662 60C12.8222 60 16.3895 56.7876 16.9533 52.6343H18.4143V52.711C18.4143 54.6994 20.032 56.3171 22.0205 56.3171H29.3862C31.3746 56.3171 32.9923 54.6994 32.9923 52.711V52.6343H46.7296C47.2935 56.7876 50.8607 60 55.1662 60C59.4758 60 63.0457 56.7816 63.6045 52.6226C63.6552 52.6295 63.7068 52.6343 63.7596 52.6343H68.6701C69.9816 52.6343 71.0486 51.5673 71.0486 50.2558V34.2967C71.0486 34.2873 71.0474 34.2784 71.0472 34.2692C71.0466 34.2451 71.0457 34.221 71.0435 34.1968C71.0421 34.1802 71.04 34.1638 71.0378 34.1475C71.0352 34.1273 71.0323 34.1072 71.0286 34.0869C71.0248 34.0663 71.0202 34.0462 71.0153 34.0261C71.0115 34.0105 71.0078 33.9948 71.0032 33.9792C70.9964 33.9554 70.9884 33.9322 70.9801 33.9092C70.9771 33.9008 70.9751 33.8922 70.9719 33.8836L66.0445 21.0723C65.1506 18.7482 62.8771 17.1869 60.3872 17.1869H51.4834C49.4949 17.1869 47.8772 18.8046 47.8772 20.793V29.4629H45.1291C44.7916 28.0869 43.8637 26.9412 42.6301 26.3095C42.5937 26.253 42.553 26.1987 42.5058 26.1477L31.7624 14.578H62.532C63.4261 14.578 64.2058 14.0816 64.612 13.3504H72.4297V18.3376C72.4297 18.9732 72.945 19.4885 73.5806 19.4885C74.9767 19.4885 76.1125 20.6243 76.1125 22.0205C76.1125 23.4166 74.9767 24.5524 73.5806 24.5524C72.1844 24.5524 71.0486 23.4166 71.0486 22.0205C71.0486 21.3849 70.5333 20.8696 69.8977 20.8696C69.2621 20.8696 68.7468 21.3849 68.7468 22.0205C68.7468 24.6858 70.9152 26.8542 73.5806 26.8542C76.2459 26.8542 78.4143 24.6858 78.4143 22.0205C78.4143 19.7515 76.843 17.8427 74.7315 17.3251ZM76.1125 8.51662C76.1125 9.91274 74.9767 11.0486 73.5806 11.0486H64.9105V5.98465H73.5806C74.9767 5.98465 76.1125 7.12051 76.1125 8.51662ZM4.91049 19.5652C4.91049 19.6047 4.8732 19.6419 4.83376 19.6419H2.37852C2.33908 19.6419 2.30179 19.6047 2.30179 19.5652V2.37852C2.30179 2.33908 2.33908 2.30179 2.37852 2.30179H4.83376C4.8732 2.30179 4.91049 2.33908 4.91049 2.37852V19.5652ZM7.21228 4.75703H62.532C62.5743 4.75703 62.6087 4.79156 62.6087 4.83376V7.36573H33.3669C32.0758 7.36573 30.8619 7.86844 29.9491 8.78164L28.0984 10.6323L27.6396 10.138C26.7281 9.15652 25.4369 8.5935 24.0974 8.5935H21.0014C18.6333 8.5935 16.6363 10.1523 16.101 12.2764H7.21228V4.75703ZM25.7033 15.9591H20.7928C20.0914 15.9591 19.4389 15.6787 18.9559 15.1696C18.4731 14.661 18.2276 13.993 18.2646 13.2892C18.3338 11.969 19.5614 10.895 21.0012 10.895H24.0973C24.799 10.895 25.4753 11.1899 25.9527 11.704L39.0232 25.7801H33.6445L26.624 16.4194C26.4066 16.1296 26.0656 15.9591 25.7033 15.9591ZM2.30179 41.6624C2.30179 40.9432 2.88691 40.3581 3.60614 40.3581H6.06138C6.69698 40.3581 7.21228 39.8428 7.21228 39.2072C7.21228 38.5716 6.69698 38.0563 6.06138 38.0563H4.75703V29.3862C4.75703 28.667 5.34215 28.0818 6.06138 28.0818H22.649C23.2295 28.0818 23.7316 28.4555 23.8984 29.0115L26.6118 38.0563H10.9723C10.3367 38.0563 9.82143 38.5716 9.82143 39.2072C9.82143 39.8428 10.3367 40.3581 10.9723 40.3581H27.0077V46.6496H15.8824C15.7693 46.6496 15.6602 46.6666 15.5569 46.697C14.0225 44.4471 11.4394 42.9668 8.51662 42.9668C6.06691 42.9668 3.85703 44.0078 2.30179 45.669V41.6624ZM8.51662 57.6982C5.08972 57.6982 2.30179 54.9103 2.30179 51.4834C2.30179 48.0565 5.08972 45.2685 8.51662 45.2685C11.9435 45.2685 14.7315 48.0565 14.7315 51.4834C14.7315 54.9103 11.9435 57.6982 8.51662 57.6982ZM16.9533 50.3325C16.889 49.8591 16.788 49.397 16.649 48.9514H18.6595C18.5019 49.3562 18.4145 49.7959 18.4145 50.2558V50.3325H16.9533ZM30.6905 52.711C30.6905 53.4302 30.1054 54.0153 29.3862 54.0153H22.0205C21.3012 54.0153 20.7161 53.4302 20.7161 52.711V50.2558C20.7161 49.5365 21.3012 48.9514 22.0205 48.9514H29.3862C30.1054 48.9514 30.6905 49.5365 30.6905 50.2558V52.711ZM32.7473 48.9514H47.034C46.895 49.397 46.794 49.8591 46.7297 50.3325H32.9923V50.2558C32.9923 49.7959 32.9049 49.3562 32.7473 48.9514ZM55.1662 57.6982C51.7393 57.6982 48.9514 54.9103 48.9514 51.4834C48.9514 48.0565 51.7393 45.2685 55.1662 45.2685C58.5931 45.2685 61.3811 48.0565 61.3811 51.4834C61.3811 54.9103 58.5931 57.6982 55.1662 57.6982ZM67.7498 31.9182H57.6215C56.2254 31.9182 55.0895 30.7823 55.0895 29.3862V24.399H64.8578L67.7498 31.9182ZM68.7468 44.1944H67.4425C67.403 44.1944 67.3657 44.1571 67.3657 44.1176V42.89C67.3657 42.8506 67.403 42.8133 67.4425 42.8133H68.7468V44.1944ZM50.179 20.7928C50.179 20.0736 50.7641 19.4885 51.4834 19.4885H60.387C61.9314 19.4885 63.3416 20.4571 63.896 21.8985L63.9724 22.0972H53.9386C53.303 22.0972 52.7877 22.6125 52.7877 23.2481V29.3862C52.7877 32.0515 54.9562 34.2199 57.6215 34.2199H68.6351L68.7468 34.5104V40.5115H67.4425C66.1309 40.5115 65.0639 41.5785 65.0639 42.89V44.1176C65.0639 45.4292 66.1309 46.4962 67.4425 46.4962H68.7468V50.2558C68.7468 50.298 68.7124 50.3325 68.6701 50.3325H63.7596C63.7068 50.3325 63.6552 50.3372 63.6045 50.3441C63.0457 46.1851 59.4758 42.9668 55.1662 42.9668C53.3047 42.9668 51.582 43.5687 50.179 44.586V20.7928ZM47.8814 46.6536C47.8545 46.6518 47.8278 46.6496 47.8005 46.6496H29.3095V44.0409H34.2967C36.2851 44.0409 37.9028 42.4232 37.9028 40.4348V35.5243C37.9028 35.4984 37.9007 35.473 37.899 35.4476H40.4348C42.7036 35.4476 44.6111 33.8761 45.1291 31.7647H47.8772V46.5729C47.8772 46.6002 47.8794 46.6269 47.8814 46.6536ZM40.4348 33.1458H34.2199V28.0818H40.4348C41.8309 28.0818 42.9668 29.2177 42.9668 30.6138C42.9668 32.0099 41.8309 33.1458 40.4348 33.1458ZM62.532 12.2762H29.7095L31.5766 10.4092C32.0549 9.93084 32.6906 9.66752 33.3669 9.66752H62.6087V12.1995C62.6087 12.2417 62.5743 12.2762 62.532 12.2762Z" fill="#2F2F2F"/>
<path d="M8.51662 31.7647H13.4271C14.0627 31.7647 14.578 31.2494 14.578 30.6138C14.578 29.9782 14.0627 29.4629 13.4271 29.4629H8.51662C7.88102 29.4629 7.36573 29.9782 7.36573 30.6138C7.36573 31.2494 7.88102 31.7647 8.51662 31.7647Z" fill="#2F2F2F"/>
<path d="M8.51662 35.4476H13.4271C14.0627 35.4476 14.578 34.9323 14.578 34.2967C14.578 33.6611 14.0627 33.1458 13.4271 33.1458H8.51662C7.88102 33.1458 7.36573 33.6611 7.36573 34.2967C7.36573 34.9323 7.88102 35.4476 8.51662 35.4476Z" fill="#2F2F2F"/>
</svg>
