<svg width="60" height="60" viewBox="0 0 60 60" fill="none" xmlns="http://www.w3.org/2000/svg">
<path d="M25.459 43.5258C25.241 43.3066 24.9387 43.1824 24.6293 43.1824C24.3211 43.1824 24.0199 43.3066 23.8008 43.5258C23.5828 43.7438 23.4586 44.0449 23.4586 44.3543C23.4586 44.6625 23.5828 44.9648 23.8008 45.1827C24.0199 45.4007 24.3211 45.5262 24.6293 45.5262C24.9387 45.5262 25.2398 45.4008 25.459 45.1827C25.677 44.9648 25.8023 44.6625 25.8023 44.3543C25.8023 44.0448 25.677 43.7438 25.459 43.5258Z" fill="#2F2F2F"/>
<path d="M51.4421 20.1887H47.4014C48.8572 18.7365 49.7595 16.7295 49.7595 14.5155V1.17188C49.7595 0.524648 49.2348 0 48.5876 0H39.4704C36.3027 0 33.7256 2.57707 33.7256 5.74477V9.5966C33.7256 9.6048 33.7267 9.61266 33.7268 9.62074C33.7267 9.62883 33.7256 9.6368 33.7256 9.64488V14.5155C33.7256 16.7295 34.6279 18.7364 36.0837 20.1887H23.4437C24.8995 18.7365 25.8018 16.7295 25.8018 14.5155V1.17188C25.8018 0.524648 25.2771 0 24.6299 0H15.5127C12.345 0 9.76793 2.57707 9.76793 5.74477V9.5966C9.76793 9.6048 9.76898 9.61266 9.7691 9.62074C9.76898 9.62883 9.76793 9.6368 9.76793 9.64488V14.5155C9.76793 16.7295 10.6702 18.7364 12.126 20.1887H9.48105C4.2532 20.1887 0 24.4419 0 29.6699V44.3539C0 45.0011 0.524648 45.5258 1.17188 45.5258H19.6875C20.3347 45.5258 20.8594 45.0011 20.8594 44.3539C20.8594 43.7068 20.3347 43.1821 19.6875 43.1821H7.64203V35.6163C7.64203 34.9692 7.11738 34.4445 6.47016 34.4445C5.82293 34.4445 5.29828 34.9692 5.29828 35.6163V43.1821H2.34375V29.6699C2.34375 25.7344 5.54555 22.5325 9.48117 22.5325H12.7696L16.613 28.2823V35.2669C16.613 35.914 17.1376 36.4388 17.7848 36.4388C18.4321 36.4388 18.9567 35.914 18.9567 35.2669V28.3133L23.2371 22.5325H27.4846C30.911 22.5325 33.6987 25.3201 33.6987 28.7466V33.5541C33.6987 34.2012 34.2233 34.7259 34.8705 34.7259C35.5178 34.7259 36.0424 34.2012 36.0424 33.5541V28.7466C36.0424 26.301 35.0096 24.0934 33.3593 22.5325H36.4909L40.532 28.5779C40.7439 28.895 41.0968 29.0891 41.4781 29.0982C41.4875 29.0985 41.4969 29.0986 41.5063 29.0986C41.8771 29.0986 42.2268 28.9229 42.448 28.6241L46.9584 22.5326H51.4421C54.8686 22.5326 57.6562 25.3202 57.6562 28.7467V33.5542C57.6562 34.2013 58.1809 34.7261 58.8281 34.7261C59.4754 34.7261 60 34.2013 60 33.5542V28.7467C60 24.0278 56.1609 20.1887 51.4421 20.1887ZM12.1118 5.74477C12.1118 3.86941 13.6375 2.34375 15.5128 2.34375H23.4581V5.19023C23.4581 6.97371 22.0072 8.42473 20.2236 8.42473H12.1118V5.74477ZM17.8338 25.8913L15.5886 22.5325H20.3208L17.8338 25.8913ZM17.785 20.1888C14.6568 20.1888 12.1118 17.6439 12.1118 14.5157V10.7685H20.2236C21.4288 10.7685 22.545 10.383 23.4581 9.73066V14.5157C23.4581 17.6439 20.9132 20.1888 17.785 20.1888ZM36.0693 5.74477C36.0694 3.86941 37.5952 2.34375 39.4704 2.34375H47.4157V5.19023C47.4157 6.97371 45.9648 8.42473 44.1812 8.42473H36.0693V5.74477ZM41.5552 25.8913L39.31 22.5325H44.0421L41.5552 25.8913ZM41.7427 20.1888C38.6145 20.1888 36.0694 17.6439 36.0694 14.5157V10.7685H44.1813C45.3865 10.7685 46.5027 10.383 47.4158 9.73066V14.5157C47.4158 17.6439 44.8709 20.1888 41.7427 20.1888Z" fill="#2F2F2F"/>
<path d="M55.7115 36.6195H50.2608V34.3658C50.2608 32.8247 49.0069 31.5707 47.4656 31.5707H41.3624C39.8211 31.5707 38.5672 32.8246 38.5672 34.3658V36.6195H33.1165C30.7519 36.6195 28.828 38.5432 28.828 40.9079V55.7115C28.8281 58.0762 30.752 60 33.1166 60H55.7116C58.0761 60 60 58.0762 60 55.7115V40.9079C60 38.5432 58.0761 36.6195 55.7115 36.6195ZM41.3625 33.9144H47.4657C47.7146 33.9144 47.9171 34.1169 47.9171 34.3658V36.6195H40.9112V34.3658H40.9111C40.9111 34.1169 41.1136 33.9144 41.3625 33.9144ZM57.6562 55.7115C57.6562 56.7839 56.7839 57.6562 55.7115 57.6562H33.1166C32.0443 57.6562 31.1719 56.7839 31.1719 55.7115V47.2416H41.2943V47.4333C41.2943 49.1535 42.6937 50.5529 44.4141 50.5529C46.1344 50.5529 47.5338 49.1535 47.5338 47.4333V47.2416H57.6562V55.7115ZM43.638 47.4333V45.8781H45.1901V47.4333C45.1901 47.861 44.842 48.2092 44.4141 48.2092C43.9861 48.2092 43.638 47.861 43.638 47.4333ZM57.6562 44.8978H47.5338V44.7062C47.5338 44.0591 47.0092 43.5343 46.362 43.5343H42.4663C41.8191 43.5343 41.2944 44.0591 41.2944 44.7062V44.8978H31.1719V40.9079C31.1719 39.8357 32.0442 38.9632 33.1166 38.9632H55.7115C56.7838 38.9632 57.6562 39.8355 57.6562 40.9079V44.8978Z" fill="#2F2F2F"/>
</svg>
