<svg width="60" height="60" viewBox="0 0 60 60" fill="none" xmlns="http://www.w3.org/2000/svg">
<path d="M59.8745 37.0616L54.364 27.8775V17.7299H54.4227C55.4263 17.7299 56.2427 16.9135 56.2427 15.91V13.9726H59.1194C59.453 13.9726 59.7579 13.7841 59.907 13.4858C60.0562 13.1874 60.0241 12.8304 59.8239 12.5636L57.0059 8.80626C56.8395 8.58446 56.5786 8.45401 56.3014 8.45401H48.8879L12.6457 0.0228963C12.5488 0.000352249 12.4522 -0.00434442 12.3584 0.00504892C12.3228 0.00293542 12.2873 0 12.2513 0H12.054C11.6295 0 11.2377 0.146654 10.9263 0.392642L0.388885 7.66474C0.388415 7.66509 0.387945 7.66532 0.387476 7.66568L0.380431 7.67049C0.373151 7.67542 0.36681 7.68117 0.359765 7.68634C0.344618 7.69749 0.329354 7.70865 0.315029 7.72074C0.303757 7.73014 0.293425 7.74023 0.28274 7.7501C0.272642 7.75949 0.262309 7.76853 0.252681 7.7784C0.240939 7.79037 0.23002 7.80282 0.2191 7.81538C0.21135 7.82419 0.203366 7.83276 0.196086 7.84192C0.185519 7.85507 0.175773 7.86857 0.166027 7.88219C0.158982 7.89194 0.151937 7.90145 0.145362 7.91143C0.136791 7.92434 0.129041 7.93773 0.121292 7.951C0.114481 7.96262 0.107554 7.97425 0.101213 7.98622C0.0948728 7.99832 0.0892368 8.01053 0.0836008 8.02286C0.0770254 8.03683 0.0705675 8.05068 0.0646967 8.06501C0.0602348 8.07616 0.0563601 8.08744 0.0523679 8.09871C0.0467319 8.11444 0.0410959 8.13018 0.0363992 8.14626C0.0331115 8.15753 0.0305284 8.16892 0.0277104 8.18031C0.0236008 8.1964 0.0194912 8.21249 0.0163209 8.22892C0.0137378 8.24231 0.0120939 8.25581 0.0102153 8.26931C0.00810176 8.28387 0.00563601 8.2982 0.00434442 8.31299C0.00258317 8.33143 0.0021135 8.34986 0.00152642 8.36841C0.00105675 8.37746 0 8.38626 0 8.3953V8.40411C0 8.40458 0 8.40493 0 8.4054V13.092C0 13.5783 0.394286 13.9726 0.880626 13.9726H9.39335V50.6654C9.39335 51.28 9.70051 51.8234 10.1685 52.1531L9.5865 54.4814H8.3953C6.87382 54.4814 5.63601 55.7192 5.63601 57.2407V58.2387H4.63796C4.15162 58.2387 3.75734 58.6329 3.75734 59.1194C3.75734 59.6058 4.15162 60 4.63796 60H19.6673C20.1537 60 20.5479 59.6058 20.5479 59.1194C20.5479 58.6329 20.1537 58.2387 19.6673 58.2387H18.6693V57.2407C18.6693 55.7192 17.4315 54.4814 15.91 54.4814H14.7188L14.1368 52.1531C14.6048 51.8234 14.9119 51.28 14.9119 50.6654V20.5479H15.3825C16.6442 20.5479 17.7399 19.6976 18.0544 18.4777L19.386 13.9726H50.7241V15.91C50.7241 16.9135 51.5405 17.7299 52.544 17.7299H52.6027V27.8775L47.0923 37.0617C46.929 37.3337 46.9247 37.6726 47.0811 37.9487C47.2374 38.2247 47.5301 38.3954 47.8474 38.3954H59.1194C59.4366 38.3954 59.7294 38.2247 59.8856 37.9487C60.042 37.6725 60.0377 37.3336 59.8745 37.0616ZM57.3581 12.2114H18.7186C18.7168 12.2114 18.7151 12.2114 18.7133 12.2114H6.45793V10.2153H48.7843C48.7854 10.2153 48.7863 10.2154 48.7874 10.2154C48.7881 10.2154 48.7887 10.2153 48.7894 10.2153H55.8611L57.3581 12.2114ZM12.009 1.78368C12.0173 1.77757 12.0252 1.77147 12.0332 1.76513C12.0397 1.76266 12.0467 1.76125 12.054 1.76125H12.2513C12.2812 1.76125 12.3062 1.78368 12.3096 1.8135L13.0475 8.45401H11.2578L11.9957 1.8135C11.9971 1.802 12.0022 1.79213 12.009 1.78368ZM9.48575 8.45401H6.45793V8.3953C6.45793 7.90896 6.06364 7.51468 5.5773 7.51468H3.70708L10.0787 3.11753L9.48575 8.45401ZM14.8195 8.45401L14.1218 2.17456L41.1146 8.45401H14.8195ZM1.76125 9.27593H4.69667V12.2114H1.76125V9.27593ZM16.908 57.2407V58.2387H7.39726V57.2407C7.39726 56.6904 7.84497 56.2427 8.3953 56.2427H10.2709C10.2721 56.2427 10.2734 56.2429 10.2747 56.2429C10.2756 56.2429 10.2764 56.2427 10.2774 56.2427H14.0279C14.0288 56.2427 14.0297 56.2429 14.0306 56.2429C14.0318 56.2429 14.0331 56.2427 14.0344 56.2427H15.91C16.4603 56.2427 16.908 56.6904 16.908 57.2407ZM11.4018 54.4814L11.9008 52.4853H12.4044L12.9034 54.4814H11.4018ZM13.1507 50.6654C13.1507 50.6978 13.1244 50.7241 13.092 50.7241H11.2133C11.1809 50.7241 11.1546 50.6978 11.1546 50.6654V20.5479H13.1507V50.6654ZM16.3605 17.9946C16.357 18.0066 16.3537 18.0186 16.3508 18.0306C16.2395 18.4758 15.8413 18.7866 15.3825 18.7866H11.1546V13.9725H17.5494L16.3605 17.9946ZM52.4853 15.91V13.9726H54.4814V15.91C54.4814 15.9424 54.4551 15.9687 54.4227 15.9687H52.544C52.5116 15.9687 52.4853 15.9424 52.4853 15.91ZM49.4028 36.6341L53.4834 29.8329L57.564 36.6341H49.4028Z" fill="#2F2F2F"/>
</svg>
