<svg width="60" height="60" viewBox="0 0 60 60" fill="none" xmlns="http://www.w3.org/2000/svg">
<path d="M45.4295 54.3771C45.1049 53.8176 44.3881 53.6271 43.8279 53.9517L43.7828 53.9777C43.2231 54.3024 43.0327 55.0195 43.3573 55.5793C43.5746 55.954 43.9678 56.1633 44.3719 56.1633C44.5713 56.1633 44.7738 56.1121 44.9589 56.0047L45.004 55.9787C45.5637 55.654 45.7541 54.9369 45.4295 54.3771Z" fill="#2F2F2F"/>
<path d="M55.9799 15.0093C51.9742 8.07121 45.5065 3.10842 37.7681 1.03489C30.03 -1.03863 21.9473 0.0255544 15.0092 4.03116C8.07116 8.03676 3.10825 14.5046 1.03484 22.2429C-1.03856 29.9811 0.0255021 38.0639 4.0311 45.0019C7.6242 51.2254 13.335 55.9553 20.1115 58.3199C23.3238 59.4407 26.6771 60 30.0253 60C33.6657 60 37.2996 59.3384 40.7345 58.0182C41.3386 57.7861 41.64 57.1082 41.4077 56.504C41.1755 55.8999 40.4974 55.5982 39.8935 55.8308C30.7505 59.3449 20.8526 57.7482 13.4577 52.1975L14.5076 46.7172L15.0135 46.5529C16.9252 45.9318 17.9752 43.8712 17.3543 41.9594L16.9831 40.8169C16.8972 40.5525 16.8976 40.273 16.9842 40.0089C17.3099 39.0161 17.1935 37.9299 16.6649 37.0285C16.1363 36.1272 15.2451 35.4952 14.2195 35.2947L11.5746 34.7779L6.47131 30.8978C6.16556 30.6653 5.76537 30.5974 5.39998 30.716L2.41215 31.6866C2.34875 30.6179 2.34782 29.5497 2.40805 28.487C2.52594 28.5968 2.6027 28.6714 2.64993 28.7204C2.7084 28.8178 2.78083 28.9071 2.86567 28.9845C3.10965 29.2066 3.33067 29.3074 3.79474 29.3074C4.22118 29.3073 4.85247 29.2223 5.89486 29.0684C6.88346 28.9222 7.8669 28.7576 7.87663 28.7559C8.27073 28.69 8.6039 28.4275 8.76069 28.0601C8.91749 27.6926 8.87612 27.2706 8.651 26.9403L7.21416 24.8328L9.27222 23.3612C9.40933 23.2631 9.5237 23.1367 9.60749 22.9904L12.7977 17.4211L14.0836 16.0432C15.3976 14.6348 15.7726 12.5743 15.0388 10.7935C14.6059 9.74313 13.8498 8.86867 12.9041 8.27934C13.9283 7.47414 15.0204 6.7307 16.181 6.06073C20.4394 3.60213 25.0866 2.41068 29.685 2.36509L27.5924 4.98999L19.8328 7.71027C19.5177 7.82066 19.2646 8.06043 19.1373 8.3691L16.9703 13.6224C16.8164 13.9956 16.8653 14.4215 17.0998 14.7501L20.2648 19.1836C19.8115 19.5971 19.3703 20.1995 18.8433 20.9474C18.6122 21.2754 18.394 21.5851 18.2432 21.7588C18.1121 21.9099 17.9808 22.0576 17.8507 22.2038C17.17 22.9697 16.4662 23.7617 15.9661 24.8197C14.8667 27.1469 15.0887 29.8519 16.5456 31.879C17.9543 33.839 20.2768 34.8353 22.7555 34.5437C23.1593 34.4964 23.5359 34.4032 23.9002 34.313C24.9049 34.0644 25.2231 34.0396 25.5454 34.3412C25.7022 34.4881 25.7166 34.5158 25.7135 35.0138C25.7112 35.3307 25.7088 35.7249 25.818 36.175C25.9929 36.8951 26.4452 37.3928 26.8085 37.7927C26.989 37.9913 27.1758 38.1968 27.2334 38.3348C27.5989 39.2106 27.4397 39.6957 27.091 40.7586C27.0611 40.8495 27.0306 40.9423 27.0001 41.0375C26.4703 42.6775 27.2088 44.3043 27.8603 45.7394C28.072 46.2055 28.2718 46.6454 28.4027 47.0342C29.4563 50.1607 30.2462 50.8767 30.88 51.165C31.212 51.3159 31.5556 51.3821 31.9027 51.382C33.592 51.3819 35.3547 49.8134 36.1645 48.8191C36.6731 48.1947 36.7984 47.5695 36.8898 47.1128C36.9354 46.8857 36.9712 46.7064 37.0397 46.5892C37.1444 46.41 37.2678 46.271 37.424 46.0949C37.7382 45.7412 38.1293 45.301 38.3825 44.5031C38.5749 43.897 38.7148 43.7484 39.1778 43.2552C39.2584 43.1696 39.3443 43.0779 39.4365 42.9776C40.9973 41.2792 40.5954 39.9818 40.1696 38.6082C39.8114 37.4523 40.438 36.7131 41.953 35.3023C42.6097 34.6907 43.2887 34.0583 43.8136 33.2985C44.0433 32.9659 44.7421 31.9542 44.3097 30.9515C43.8858 29.9682 42.8085 29.803 41.9429 29.6704C41.6011 29.6179 41.0845 29.5386 40.9201 29.4312C40.1951 28.9571 39.7515 27.9678 39.3225 27.011C39.2371 26.8206 39.1528 26.6326 39.0674 26.4501C38.915 26.1246 38.7628 25.7307 38.6017 25.3138C38.1753 24.2103 37.6922 22.9596 36.8696 22.0877C36.1303 21.3043 34.7366 20.927 33.5069 20.5939C33.0934 20.482 32.703 20.3763 32.4456 20.2813C32.2298 20.2016 31.9957 20.1872 31.7723 20.2397C31.1738 20.3799 30.8005 20.5345 30.5232 20.7567C30.45 20.8154 30.233 21.0082 30.106 21.318C29.677 21.1121 29.0871 20.719 28.724 20.477C28.7165 20.4719 28.7089 20.4669 28.7014 20.4618C28.8237 19.9722 28.713 19.5793 28.597 19.3339C27.9424 17.9492 25.7694 18.0576 25.3407 18.0941C25.0972 18.1145 24.7891 18.1254 24.4632 18.1368C23.9513 18.155 23.3855 18.1754 22.8257 18.2382L22.8545 18.1578C23.2795 16.9739 24.4101 16.1784 25.668 16.1784H26.3342C26.9812 16.1784 27.506 15.6536 27.506 15.0066C27.506 14.3596 26.9812 13.8349 26.3342 13.8349H25.668C23.8005 13.8349 22.0904 14.8177 21.1319 16.3647L19.384 13.9163L21.1036 9.74805L28.686 7.08976C28.8939 7.01687 29.0772 6.88679 29.2147 6.71441L32.5854 2.48638C41.198 3.30565 49.305 8.13449 53.9506 16.1809C55.188 18.3241 56.1033 20.5804 56.7119 22.8882L56.2151 23.3312C55.5667 23.9097 55.1868 24.7396 55.1723 25.608C55.1722 25.6175 55.1719 25.6269 55.1716 25.6363L54.3623 23.4106C54.2417 23.0785 54.064 22.774 53.8346 22.5055L52.3909 20.8153C51.8312 20.1601 51.0163 19.7845 50.1549 19.7845H48.3878C47.7605 19.7845 47.1872 20.1281 46.8913 20.6809C46.5954 21.2338 46.6278 21.9015 46.9757 22.4232L47.1545 22.6917C46.0126 23.6736 44.6919 24.4594 43.2857 24.9893L40.8634 20.3495V19.3143C40.8634 18.9942 40.7324 18.6877 40.5007 18.4668L38.3195 16.3845C38.1991 16.2697 38.0557 16.1818 37.8988 16.1266L35.9353 15.4366C35.3244 15.2217 34.6557 15.5431 34.4413 16.1535C34.2267 16.7642 34.5477 17.433 35.1582 17.6476L36.8837 18.254L38.5199 19.8158V20.637C38.5199 20.8258 38.5656 21.0119 38.653 21.1794L41.6855 26.988C41.9582 27.5107 42.5771 27.7495 43.1296 27.5452L44.0126 27.2196C46.064 26.463 47.9653 25.246 49.5113 23.7003C49.9062 23.3053 49.9676 22.6867 49.6576 22.2218L49.5953 22.1281H50.1549C50.3298 22.1281 50.4954 22.2044 50.6091 22.3376L52.0527 24.0278C52.0993 24.0822 52.1352 24.1439 52.1598 24.2115L53.753 28.5923C53.8899 28.9688 54.2096 29.2491 54.6003 29.3358C54.6847 29.3544 54.7696 29.3636 54.8541 29.3636C55.1615 29.3636 55.4607 29.2425 55.6826 29.0203L56.441 28.262C56.9212 27.7816 57.2518 27.1739 57.4097 26.5002C58.5826 35.8992 54.8971 45.6221 47.1072 51.7363C46.598 52.1357 46.5092 52.8723 46.9089 53.3815C47.3084 53.8906 48.0448 53.9795 48.5541 53.5797C54.1782 49.1656 58.0419 42.8521 59.4335 35.8022C60.8381 28.6843 59.6117 21.2997 55.9799 15.0093ZM5.54084 33.1344L10.3728 36.8084C10.5157 36.917 10.6814 36.9913 10.8574 37.0257L13.7698 37.5947C14.1415 37.6674 14.4516 37.8872 14.6432 38.2139C14.8348 38.5405 14.8751 38.9185 14.7572 39.2784C14.5146 40.0182 14.5134 40.8006 14.754 41.5409L15.1253 42.6833C15.3471 43.366 14.9719 44.1021 14.2893 44.3239L13.1248 44.7023C12.7185 44.8342 12.4164 45.1769 12.3361 45.5962L11.3988 50.4887C9.33831 48.6028 7.52916 46.3739 6.06068 43.8303C4.26911 40.7275 3.14973 37.418 2.65637 34.0716L5.54084 33.1344ZM12.3702 14.4442L10.9917 15.9212C10.9302 15.9871 10.8764 16.06 10.8315 16.1383L7.7012 21.6035L4.91904 23.5929C4.40083 23.9634 4.27357 24.6798 4.63239 25.2062L5.67291 26.7325C5.07314 26.8218 4.53489 26.8953 4.177 26.9344C4.10821 26.8684 4.03626 26.8015 3.96185 26.7323C3.68329 26.4736 3.29622 26.128 2.71918 25.623C3.67087 19.7328 6.50916 14.1837 10.9731 9.94798C11.8279 10.2172 12.5293 10.8548 12.872 11.6865C13.2575 12.6219 13.0604 13.7044 12.3702 14.4442ZM21.9245 20.8477C22.4472 20.5536 23.6603 20.5106 24.546 20.4792C24.901 20.4666 25.2364 20.4547 25.5359 20.4296C25.694 20.4164 25.8695 20.4188 26.0351 20.4317C25.9612 20.6216 25.9372 20.8299 25.9693 21.0367C26.0256 21.4003 26.2498 21.7161 26.5742 21.8897C26.794 22.0073 27.1 22.2113 27.4239 22.4273C28.3398 23.0379 29.3779 23.7299 30.3532 23.792C31.24 23.8495 31.7335 23.3441 31.9449 23.1288C31.9618 23.1117 31.9777 23.0946 31.9946 23.079C32.1137 22.982 32.2252 22.8519 32.3082 22.695C32.4956 22.7485 32.6925 22.8019 32.8943 22.8566C33.5881 23.0444 34.8797 23.3941 35.165 23.6965C35.6719 24.2338 36.0669 25.2565 36.4155 26.1587C36.5917 26.6147 36.7581 27.045 36.9447 27.444C37.0249 27.6152 37.1038 27.7916 37.1839 27.9702C37.7246 29.1763 38.3375 30.5434 39.6377 31.3933C40.2273 31.7787 40.95 31.8894 41.5877 31.9873C41.6648 31.9991 41.7532 32.0127 41.843 32.0275C41.4645 32.5555 40.9255 33.0573 40.3561 33.5876C38.9054 34.9385 37.1 36.6199 37.9315 39.3023C38.3239 40.5688 38.3422 40.7057 37.7112 41.3922C37.6251 41.4858 37.545 41.5711 37.4699 41.6511C36.9294 42.2265 36.5025 42.6809 36.149 43.7942C36.0464 44.1175 35.9134 44.2673 35.6718 44.5392C35.4787 44.7567 35.2381 45.0276 35.0163 45.4073C34.7505 45.8622 34.6626 46.3003 34.5922 46.6522C34.5227 46.9985 34.4833 47.1723 34.3474 47.3391C34.0379 47.7191 33.4606 48.2708 32.868 48.6473C32.3172 48.997 31.9957 49.0448 31.8861 49.0382C31.7611 48.9042 31.3081 48.3172 30.6237 46.286C30.455 45.7849 30.2209 45.2692 29.9944 44.7706C29.4953 43.6714 28.9794 42.5347 29.2304 41.7578C29.26 41.6662 29.2893 41.5766 29.3182 41.4891C29.7192 40.2668 30.0977 39.1127 29.3964 37.4322C29.1829 36.9204 28.843 36.5465 28.5433 36.2165C28.3494 36.0031 28.1296 35.7612 28.0958 35.622C28.0545 35.4522 28.0558 35.2561 28.0573 35.0291C28.0613 34.4168 28.0674 33.4916 27.1476 32.6303C25.8508 31.4165 24.3386 31.7904 23.3378 32.0379C23.0304 32.1138 22.74 32.1858 22.4827 32.216C20.8364 32.4089 19.3667 31.7878 18.4491 30.5109C17.4892 29.1754 17.3499 27.378 18.0856 25.8206C18.4417 25.067 18.9797 24.4615 19.6027 23.7607C19.7387 23.6075 19.8761 23.4531 20.0134 23.2949C20.2419 23.0314 20.4934 22.6747 20.7593 22.297C21.0768 21.8464 21.6679 21.0074 21.9245 20.8477Z" fill="#2F2F2F"/>
<path d="M48.0496 40.3451L47.4858 38.22C47.3626 37.756 46.9689 37.414 46.4923 37.3571C46.0151 37.3013 45.5523 37.5399 45.3232 37.9619C45.1948 38.1986 45.0791 38.4494 44.9673 38.6918C44.7792 39.0998 44.5847 39.5216 44.3823 39.7545C44.2686 39.8853 43.9766 40.0263 43.6944 40.1624C43.0198 40.488 42.0957 40.9339 41.7428 42.0591C41.5236 42.7571 41.6054 43.3093 41.6652 43.7124C41.7169 44.062 41.7288 44.1831 41.6352 44.403L41.6235 44.4303C41.2505 45.3056 40.5565 46.9351 41.5296 48.3203C42.2239 49.3089 42.954 49.5631 43.5213 49.5631C43.6321 49.5635 43.7368 49.5537 43.8338 49.5379C45.0291 49.3426 45.9277 48.0992 46.662 45.6247L48.0403 40.9792C48.1016 40.7726 48.1049 40.5532 48.0496 40.3451ZM44.4154 44.958C44.0411 46.2196 43.7099 46.8086 43.5188 47.0697C43.4967 47.0416 43.4728 47.0097 43.4473 46.9733C43.2233 46.6543 43.558 45.8687 43.7795 45.3487L43.7913 45.3213C44.1485 44.4829 44.053 43.8391 43.9835 43.3689C43.9389 43.0679 43.9229 42.9385 43.9788 42.7607C44.0248 42.6146 44.2993 42.4728 44.713 42.2731C44.8964 42.1845 45.0983 42.0871 45.3021 41.9692L44.4154 44.958Z" fill="#2F2F2F"/>
<path d="M31.6442 13.9289L31.5651 13.9012C30.9549 13.6874 30.2858 14.0084 30.0716 14.6191C29.8573 15.2299 30.1788 15.8984 30.7894 16.1126L30.8684 16.1403C30.9968 16.1853 31.1275 16.2066 31.2563 16.2066C31.7401 16.2066 32.1929 15.9046 32.3621 15.4224C32.5763 14.8116 32.2549 14.143 31.6442 13.9289Z" fill="#2F2F2F"/>
</svg>
