<svg width="49" height="49" viewBox="0 0 49 49" fill="none" xmlns="http://www.w3.org/2000/svg">
<circle cx="24.5" cy="24.5" r="24.5" fill="white"/>
<path fill-rule="evenodd" clip-rule="evenodd" d="M24.5638 42C34.2641 42 42.1277 34.165 42.1277 24.5C42.1277 22.3222 41.7284 20.2374 40.9989 18.3141C40.5541 17.1415 39.9865 16.029 39.3117 14.9921C36.1817 10.1821 30.7457 7 24.5638 7C14.8636 7 7 14.835 7 24.5C7 34.165 14.8636 42 24.5638 42ZM24.5638 38.6929C28.7603 38.6929 32.533 36.8848 35.1399 34.0079C35.4587 33.6561 35.76 33.2883 36.0426 32.906C37.7812 30.553 38.8085 27.646 38.8085 24.5C38.8085 23.0044 38.5763 21.5628 38.1459 20.2091C37.5239 18.2525 36.4877 16.4795 35.1399 14.9921C32.533 12.1152 28.7603 10.3071 24.5638 10.3071C20.3673 10.3071 16.5947 12.1152 13.9877 14.9921C13.669 15.3439 13.3676 15.7116 13.0851 16.094C11.3465 18.447 10.3191 21.354 10.3191 24.5C10.3191 27.646 11.3465 30.553 13.0851 32.906C13.3676 33.2883 13.669 33.6561 13.9877 34.0079C16.5947 36.8848 20.3673 38.6929 24.5638 38.6929Z" fill="#EF8F01"/>
<path d="M35.1399 34.0079C35.4587 33.6561 35.76 33.2883 36.0426 32.906V21.6063L38.1459 20.2091C37.5239 18.2525 36.4877 16.4795 35.1399 14.9921H29.4043L19.7234 24.6378V14.9921H13.9877C13.669 15.3439 13.3676 15.7116 13.0851 16.094V32.906C13.3676 33.2883 13.669 33.6561 13.9877 34.0079H19.7234L29.4043 24.3622V34.0079H35.1399Z" fill="#EF8F01"/>
<path d="M39.3117 14.9921C39.9865 16.029 40.5541 17.1415 40.9989 18.3141L46 14.9921H39.3117Z" fill="#EF8F01"/>
</svg>
