<svg width="18" height="18" viewBox="0 0 18 18" fill="none" xmlns="http://www.w3.org/2000/svg">
<path d="M2.31039 0H15.6898C16.9604 0 18 0.940705 18 2.31018V15.6898C18 17.0593 16.9604 18 15.6898 18H2.31039C1.03941 18 0 17.0593 0 15.6898V2.31018C0 0.940705 1.03941 0 2.31039 0ZM13.1123 1.99988C12.6666 1.99988 12.3023 2.36433 12.3023 2.81029V4.74992C12.3023 5.19569 12.6666 5.56033 13.1123 5.56033H15.1468C15.5926 5.56033 15.9572 5.19569 15.9572 4.74992V2.81029C15.9572 2.36433 15.5926 1.99988 15.1468 1.99988H13.1123ZM15.9657 7.61214H14.3815C14.5314 8.10153 14.6125 8.61993 14.6125 9.15626C14.6125 12.1503 12.1071 14.5772 9.01719 14.5772C5.92743 14.5772 3.42243 12.1503 3.42243 9.15626C3.42243 8.61956 3.50338 8.10134 3.65345 7.61214H2.00027V15.2156C2.00027 15.6091 2.32222 15.9312 2.71588 15.9312H15.2505C15.6441 15.9312 15.9661 15.6092 15.9661 15.2156V7.61214H15.9657ZM9.017 5.45812C7.02062 5.45812 5.402 7.02627 5.402 8.96091C5.402 10.8955 7.02062 12.4637 9.017 12.4637C11.0136 12.4637 12.6324 10.8955 12.6324 8.96091C12.6324 7.02627 11.0138 5.45812 9.017 5.45812Z" fill="white"/>
</svg>
