<svg width="14" height="16" viewBox="0 0 14 16" fill="none" xmlns="http://www.w3.org/2000/svg">
<path fill-rule="evenodd" clip-rule="evenodd" d="M7.90502 0.213013C8.17839 -0.0710045 8.62161 -0.0710045 8.89497 0.213013L11.695 3.12211C11.9684 3.40612 11.9684 3.86659 11.695 4.15061L3.99498 12.1506C3.8637 12.287 3.68565 12.3636 3.5 12.3636H0.7C0.313401 12.3636 0 12.038 0 11.6364V8.72727C0 8.53438 0.0737492 8.34941 0.205025 8.21302L7.90502 0.213013ZM1.4 9.02852V10.9091H3.21005L10.21 3.63636L8.4 1.75578L1.4 9.02852Z" fill="#848484"/>
<path fill-rule="evenodd" clip-rule="evenodd" d="M0 15.2727C0 14.8711 0.313401 14.5455 0.7 14.5455H13.3C13.6866 14.5455 14 14.8711 14 15.2727C14 15.6744 13.6866 16 13.3 16H0.7C0.313401 16 0 15.6744 0 15.2727Z" fill="#848484"/>
</svg>
