<svg width="20" height="14" viewBox="0 0 20 14" fill="none" xmlns="http://www.w3.org/2000/svg">
<path d="M19.15 1.34909C18.6075 0.366545 18.0188 0.185818 16.82 0.117091C15.6225 0.0343636 12.6112 0 10.0025 0C7.38875 0 4.37625 0.0343637 3.18 0.115818C1.98375 0.185818 1.39375 0.365273 0.84625 1.34909C0.2875 2.33036 0 4.02055 0 6.99618C0 6.99873 0 7 0 7C0 7.00255 0 7.00382 0 7.00382V7.00636C0 9.96927 0.2875 11.6722 0.84625 12.6433C1.39375 13.6258 1.9825 13.804 3.17875 13.8867C4.37625 13.958 7.38875 14 10.0025 14C12.6112 14 15.6225 13.958 16.8212 13.888C18.02 13.8053 18.6087 13.6271 19.1513 12.6445C19.715 11.6735 20 9.97054 20 7.00764C20 7.00764 20 7.00382 20 7.00127C20 7.00127 20 6.99873 20 6.99745C20 4.02055 19.715 2.33036 19.15 1.34909ZM7.5 10.8182V3.18182L13.75 7L7.5 10.8182Z" fill="#848484"/>
</svg>
