<svg width="20" height="16" viewBox="0 0 20 16" fill="none" xmlns="http://www.w3.org/2000/svg">
<path fill-rule="evenodd" clip-rule="evenodd" d="M2.72733 1.77778C2.22941 1.77778 1.81824 2.17981 1.81824 2.66667V13.3333C1.81824 13.8202 2.22941 14.2222 2.72733 14.2222H17.2727C17.7706 14.2222 18.1818 13.8202 18.1818 13.3333V2.66667C18.1818 2.17981 17.7706 1.77778 17.2727 1.77778H2.72733ZM7.43779e-05 2.66667C7.43779e-05 1.19797 1.22526 0 2.72733 0H17.2727C18.7747 0 19.9999 1.19797 19.9999 2.66667V13.3333C19.9999 14.802 18.7747 16 17.2727 16H2.72733C1.22526 16 7.43779e-05 14.802 7.43779e-05 13.3333V2.66667Z" fill="#848484"/>
<path fill-rule="evenodd" clip-rule="evenodd" d="M0.16441 2.1569C0.45233 1.75472 1.01918 1.65695 1.43049 1.93848L10 7.80387L18.5695 1.93848C18.9808 1.65695 19.5477 1.75472 19.8356 2.1569C20.1235 2.55908 20.0235 3.11333 19.6122 3.39486L10.5213 9.61708C10.2083 9.83132 9.79169 9.83132 9.47868 9.61708L0.387839 3.39486C-0.0234756 3.11333 -0.12351 2.55908 0.16441 2.1569Z" fill="#848484"/>
</svg>
