<svg width="60" height="60" viewBox="0 0 60 60" fill="none" xmlns="http://www.w3.org/2000/svg">
<path d="M49.3284 17.6871C49.1106 17.469 48.8083 17.3437 48.5002 17.3437C48.1921 17.3437 47.8899 17.469 47.6719 17.6871C47.4541 17.9051 47.3287 18.2074 47.3287 18.5156C47.3287 18.8238 47.4539 19.1261 47.6719 19.344C47.8898 19.562 48.1921 19.6875 48.5002 19.6875C48.8083 19.6875 49.1105 19.5621 49.3284 19.344C49.5462 19.1262 49.6717 18.8238 49.6717 18.5156C49.6717 18.2074 49.5463 17.905 49.3284 17.6871Z" fill="#2F2F2F"/>
<path d="M48.5002 15.0586C49.1471 15.0586 49.6717 14.5337 49.6717 13.8867V3.51557C49.6717 1.57702 48.0951 6.53431e-09 46.1572 6.53431e-09H3.51456C1.57664 -0.000117218 0 1.57702 0 3.51557V56.4843C0 58.4229 1.57664 60 3.51456 60H46.1573C48.0952 60 49.6718 58.4229 49.6718 56.4843V51.2209C49.6718 50.5739 49.1472 50.049 48.5003 50.049C47.8534 50.049 47.3288 50.5739 47.3288 51.2209V56.4843C47.3288 57.1305 46.8032 57.6562 46.1573 57.6562H3.51456C2.86863 57.6562 2.34304 57.1305 2.34304 56.4843V3.51557C2.34304 2.86942 2.86863 2.34367 3.51456 2.34367H46.1573C46.8032 2.34367 47.3288 2.86942 47.3288 3.51557V13.8867C47.3287 14.5337 47.8533 15.0586 48.5002 15.0586Z" fill="#2F2F2F"/>
<path d="M58.9705 47.133L52.9273 41.0878C53.9678 39.2296 54.5624 37.0892 54.5624 34.8121C54.5624 27.7083 48.785 21.9289 41.6833 21.9289C41.6124 21.9289 41.5418 21.9304 41.4713 21.9315V15.4835C41.4713 14.8364 40.9467 14.3116 40.2998 14.3116H33.453V7.98358C33.453 7.3365 32.9283 6.81169 32.2815 6.81169H24.2633C23.6164 6.81169 23.0918 7.3365 23.0918 7.98358V15.0148H16.245C15.5981 15.0148 15.0735 15.5396 15.0735 16.1867V22.5149H9.37206C8.72518 22.5149 8.20053 23.0397 8.20053 23.6868V30.0149C8.20053 30.662 8.72518 31.1868 9.37206 31.1868H29.324C28.9862 32.3373 28.8041 33.5538 28.8041 34.8122C28.8041 41.916 34.5815 47.6954 41.6832 47.6954C43.9595 47.6954 46.0994 47.1008 47.9569 46.0598L53.9605 52.0652C54.6678 52.7728 55.5871 53.1293 56.5026 53.1292C57.3569 53.1292 58.2078 52.8187 58.8791 52.1932C59.5845 51.5361 59.9822 50.6441 59.9994 49.6818C60.0164 48.7188 59.651 47.8138 58.9705 47.133ZM15.0733 28.843H10.5436V24.8586H15.0735L15.0733 28.843ZM23.0916 28.843H17.4164V17.3586H23.0916V28.843ZM25.4346 28.843V9.15547H31.1098V21.3282C31.1098 21.9753 31.6345 22.5001 32.2814 22.5001C32.9282 22.5001 33.4529 21.9753 33.4529 21.3282V16.6555H39.1283V22.1839C35.2792 22.962 32.0474 25.4622 30.2729 28.843H25.4346ZM41.6832 45.3516C35.8736 45.3516 31.147 40.6235 31.147 34.8121C31.147 29.0007 35.8735 24.2725 41.6832 24.2725C47.4929 24.2725 52.2194 29.0005 52.2194 34.8121C52.2194 40.6236 47.4929 45.3516 41.6832 45.3516ZM57.2822 50.478C56.8267 50.9023 56.0801 50.8708 55.6173 50.4077L49.9196 44.7082C50.5204 44.2068 51.0751 43.6521 51.5764 43.0508L57.3139 48.79C57.5407 49.017 57.6626 49.3187 57.6569 49.6397C57.6509 49.9608 57.5181 50.2583 57.2822 50.478Z" fill="#2F2F2F"/>
<path d="M44.7331 28.82C44.1698 28.502 43.455 28.7006 43.137 29.2644L36.8379 40.4258C36.5199 40.9895 36.7187 41.7043 37.2822 42.0224C37.4642 42.1252 37.6619 42.1741 37.857 42.1741C38.2658 42.1741 38.6629 41.9597 38.8782 41.5782L45.1772 30.4167C45.4954 29.8529 45.2965 29.1382 44.7331 28.82Z" fill="#2F2F2F"/>
<path d="M45.7765 35.8126C43.8386 35.8126 42.262 37.3897 42.262 39.3283C42.262 41.2668 43.8386 42.8438 45.7765 42.8438C47.7145 42.8438 49.291 41.2667 49.291 39.3283C49.2911 37.3896 47.7145 35.8126 45.7765 35.8126ZM45.7765 40.5C45.1306 40.5 44.605 39.9743 44.605 39.3281C44.605 38.682 45.1306 38.1563 45.7765 38.1563C46.4225 38.1563 46.948 38.682 46.948 39.3281C46.948 39.9743 46.4226 40.5 45.7765 40.5Z" fill="#2F2F2F"/>
<path d="M37.5898 26.7803C35.6519 26.7803 34.0753 28.3574 34.0753 30.296C34.0753 32.2345 35.6519 33.8117 37.5898 33.8117C39.5277 33.8117 41.1043 32.2345 41.1043 30.296C41.1043 28.3574 39.5276 26.7803 37.5898 26.7803ZM37.5898 31.4678C36.9439 31.4678 36.4183 30.942 36.4183 30.2959C36.4183 29.6497 36.9439 29.124 37.5898 29.124C38.2358 29.124 38.7613 29.6497 38.7613 30.2959C38.7613 30.942 38.2358 31.4678 37.5898 31.4678Z" fill="#2F2F2F"/>
<path d="M39.9327 51.3281H7.49764C6.85077 51.3281 6.32612 51.8529 6.32612 52.5C6.32612 53.147 6.85077 53.6719 7.49764 53.6719H39.9327C40.5796 53.6719 41.1043 53.147 41.1043 52.5C41.1043 51.8529 40.5796 51.3281 39.9327 51.3281Z" fill="#2F2F2F"/>
<path d="M24.8359 44.7656H17.572C16.9251 44.7656 16.4005 45.2904 16.4005 45.9375C16.4005 46.5846 16.9251 47.1094 17.572 47.1094H24.8359C25.4827 47.1094 26.0074 46.5846 26.0074 45.9375C26.0074 45.2904 25.4827 44.7656 24.8359 44.7656Z" fill="#2F2F2F"/>
<path d="M29.96 45.109C29.7421 44.891 29.4398 44.7656 29.1317 44.7656C28.8236 44.7656 28.5214 44.8909 28.3034 45.109C28.0844 45.3269 27.9602 45.6293 27.9602 45.9375C27.9602 46.2457 28.0844 46.548 28.3034 46.7659C28.5213 46.9838 28.8226 47.1094 29.1317 47.1094C29.4398 47.1094 29.742 46.984 29.96 46.7659C30.1777 46.5481 30.3032 46.2457 30.3032 45.9375C30.3032 45.6292 30.178 45.3269 29.96 45.109Z" fill="#2F2F2F"/>
<path d="M24.8359 38.203H17.572C16.9251 38.203 16.4005 38.7278 16.4005 39.3749C16.4005 40.022 16.9251 40.5468 17.572 40.5468H24.8359C25.4827 40.5468 26.0074 40.022 26.0074 39.3749C26.0074 38.7278 25.4827 38.203 24.8359 38.203Z" fill="#2F2F2F"/>
<path d="M10.0749 41.1901C9.29975 41.1901 8.66916 40.6661 8.66916 40.0221C8.66916 39.3781 9.29975 38.8542 10.0749 38.8542C10.8501 38.8542 11.4807 39.3782 11.4807 40.0221C11.4807 40.6692 12.0054 41.194 12.6522 41.194C13.2991 41.194 13.8238 40.6692 13.8238 40.0221C13.8238 38.4685 12.7408 37.1484 11.2453 36.6867C11.2332 36.0501 10.7143 35.5372 10.0749 35.5372C9.43557 35.5372 8.91655 36.0501 8.90459 36.6867C7.40905 37.1484 6.32612 38.4685 6.32612 40.0221C6.32612 41.9584 8.00776 43.5339 10.0749 43.5339C10.8501 43.5339 11.4807 44.0579 11.4807 44.7018C11.4807 45.3458 10.8501 45.8697 10.0749 45.8697C9.29975 45.8697 8.66916 45.3458 8.66916 44.7018C8.66916 44.0548 8.14452 43.5299 7.49764 43.5299C6.85077 43.5299 6.32612 44.0548 6.32612 44.7018C6.32612 46.2549 7.40846 47.5749 8.90342 48.0369V48.1045C8.90342 48.7516 9.42807 49.2764 10.0749 49.2764C10.7218 49.2764 11.2465 48.7516 11.2465 48.1045V48.0369C12.7414 47.5749 13.8238 46.2549 13.8238 44.7018C13.8238 42.7655 12.142 41.1901 10.0749 41.1901Z" fill="#2F2F2F"/>
</svg>
