<svg width="60" height="60" viewBox="0 0 60 60" fill="none" xmlns="http://www.w3.org/2000/svg">
<path d="M55 5H53.677L51.929 0.629C51.776 0.249 51.409 0 51 0H33C32.591 0 32.224 0.249 32.071 0.629L30.323 5H5C2.243 5 0 7.243 0 10V48C0 50.757 2.243 53 5 53H24V60H26V53H41C41.553 53 42 52.553 42 52V47C42 45.14 43.276 43.571 45 43.127V60H47V53H55C57.757 53 60 50.757 60 48V10C60 7.243 57.757 5 55 5ZM58 48C58 49.654 56.654 51 55 51H47V42C47 41.447 46.553 41 46 41C42.691 41 40 43.691 40 47V51H5C3.346 51 2 49.654 2 48V24H34C34.409 24 34.776 23.751 34.929 23.371L36.677 19H58V48ZM58 17H36C35.591 17 35.224 17.249 35.071 17.629L33.323 22H2V17H30C30.409 17 30.776 16.751 30.929 16.371L32.677 12H58V17ZM32 10C31.591 10 31.224 10.249 31.071 10.629L29.323 15H2V10C2 8.346 3.346 7 5 7H31C31.409 7 31.776 6.751 31.929 6.371L33.677 2H50.323L52.071 6.371C52.224 6.751 52.591 7 53 7H55C56.654 7 58 8.346 58 10H32Z" fill="#2F2F2F"/>
<path d="M30 27C24.486 27 20 31.486 20 37C20 42.514 24.486 47 30 47C35.514 47 40 42.514 40 37C40 31.486 35.514 27 30 27ZM30 45C25.589 45 22 41.411 22 37C22 32.589 25.589 29 30 29C34.411 29 38 32.589 38 37C38 41.411 34.411 45 30 45Z" fill="#2F2F2F"/>
<path d="M34.293 33.293L29 38.586L26.707 36.293L25.293 37.707L28.293 40.707C28.488 40.902 28.744 41 29 41C29.256 41 29.512 40.902 29.707 40.707L35.707 34.707L34.293 33.293Z" fill="#2F2F2F"/>
<path d="M27 10H25V12H27V10Z" fill="#2F2F2F"/>
<path d="M23 10H21V12H23V10Z" fill="#2F2F2F"/>
<path d="M19 10H17V12H19V10Z" fill="#2F2F2F"/>
<path d="M15 10H13V12H15V10Z" fill="#2F2F2F"/>
<path d="M11 10H9V12H11V10Z" fill="#2F2F2F"/>
<path d="M7 10H5V12H7V10Z" fill="#2F2F2F"/>
</svg>
