<svg width="60" height="60" viewBox="0 0 60 60" fill="none" xmlns="http://www.w3.org/2000/svg">
<path d="M50 43.2359L47.4531 41.71C46.6768 41.2456 45.7886 41.0005 44.8838 41H41.0508C40.2661 40.9985 39.4849 41.0996 38.7261 41.2998L27.1772 44.3999C25.9146 44.7485 24.9004 45.689 24.458 46.9219L14.2998 41.4263C13.4761 40.9575 12.5117 40.7984 11.5811 40.9771C11.23 41.0391 10.8896 41.1509 10.5698 41.3091C9.84766 41.6548 9.24854 42.2134 8.85205 42.9092C8.50537 43.5151 8.32324 44.2012 8.32324 44.8989C8.3125 46.3237 9.06738 47.6441 10.2998 48.3579L28.5059 59.251C29.2969 59.7407 30.208 60 31.1382 60H45.228C45.8574 60.0005 46.481 59.8813 47.0659 59.6499L50 58.4912V60H60V40H50V43.2359ZM46.3311 57.79C45.981 57.9282 45.6074 57.9995 45.231 58H31.1382C30.5747 57.9995 30.0225 57.8408 29.5449 57.542L11.314 46.6362C10.6943 46.2783 10.3149 45.6152 10.3198 44.8999C10.3213 44.5493 10.4136 44.2046 10.5879 43.8999C10.7871 43.5547 11.0869 43.2778 11.4468 43.1069C11.6055 43.0298 11.7734 42.9751 11.9468 42.9448C12.0732 42.9214 12.2017 42.9092 12.3301 42.9092C12.6738 42.9082 13.0117 42.9981 13.3101 43.169L24.3252 49.1211C24.3379 49.1821 24.3379 49.2422 24.354 49.3032C24.8276 51.0488 26.4111 52.2612 28.2202 52.2632C28.7769 52.2124 29.3281 52.1138 29.8682 51.9692L40.2578 49.189L39.7422 47.2568L29.3862 50.0249C28.9302 50.1299 28.3418 50.25 28.2202 50.2603C27.3169 50.2617 26.5249 49.6582 26.2871 48.7871C26.2549 48.666 26.2358 48.542 26.229 48.417C26.229 48.417 26.2212 48.1748 26.229 48.0899C26.3052 47.2534 26.8911 46.5513 27.7002 46.3262L39.2441 43.2378C39.8335 43.0801 40.4409 43 41.0508 43H44.8838C45.4268 43 45.9595 43.1475 46.4248 43.4263L50 45.5669V56.3398L46.3311 57.79ZM52 42H58V58H52V42Z" fill="#2F2F2F"/>
<path d="M41.2441 8.00003L35.8799 2.63627C34.1958 0.942419 31.9043 -0.00679926 29.5161 3.66681e-05H16.9438C16.168 0.00101323 15.4028 0.182165 14.708 0.527868L12.4668 1.64896C12.0176 1.87504 11.5186 1.98295 11.0161 1.96293L10 1.92728V3.66681e-05H0V22H10V19H11.7002L12.3052 19.3999C13.998 20.5239 15.9692 21.1587 18 21.2329V34H60V8.00003H41.2441ZM8 20H2V2.00004H8V20ZM13.4121 17.7359L12.2998 17H10V3.92826L10.9429 3.96195C11.7803 3.99173 12.6113 3.81156 13.3608 3.43802L15.6001 2.31693C16.0171 2.10843 16.4775 2.00004 16.9438 2.00004H29.5161C31.3735 1.99466 33.1562 2.73294 34.4658 4.04984L38.416 8.00003H30.1641L27.7368 5.57328L26.3232 6.98685L33.3872 14.0513C34.1719 14.8325 34.1743 16.1021 33.3931 16.8872C32.6113 17.6719 31.3418 17.6743 30.5571 16.8931L24.6572 10.9932L23.957 11.5933C22.0239 13.2349 19.1982 13.2769 17.2168 11.6929L16.6372 11.2232L15.377 12.7769L15.9629 13.252C16.5757 13.7417 17.2637 14.1294 18 14.3999V19.232C16.3633 19.1592 14.7769 18.6421 13.4121 17.7359ZM27.6372 16.7998L29.146 18.3091C30.7124 19.8521 33.2271 19.8545 34.7959 18.314C33.3281 20.5869 33.9072 23.6118 36.1108 25.1817C38.3145 26.7515 41.3628 26.3106 43.0312 24.1812C44.6997 22.0513 44.3984 18.9859 42.3467 17.2222C40.2954 15.4585 37.2192 15.6201 35.3643 17.5889C36.0474 16.5161 36.1694 15.1792 35.6919 14H49.083C49.5132 16.5161 51.4839 18.4868 54 18.917V23.083C51.4839 23.5132 49.5132 25.4839 49.083 28H28.917C28.4868 25.4839 26.5161 23.5132 24 23.083V18.917C25.4292 18.6763 26.7217 17.9239 27.6372 16.7998ZM36 21C36 19.3433 37.3433 18 39 18C40.6567 18 42 19.3433 42 21C42 22.6568 40.6567 24 39 24C37.3433 24 36 22.6568 36 21ZM58 32H20V14.8189C21.5854 14.938 23.166 14.5337 24.5 13.669L26.2061 15.375C25.4556 16.3946 24.2661 16.9976 23 17H22V25H23C25.209 25 27 26.791 27 29V30H51V29C51 26.791 52.791 25 55 25H56V17H55C52.791 17 51 15.209 51 13V12H34.1641L32.1641 10H58V32Z" fill="#2F2F2F"/>
</svg>
