<svg width="53" height="60" viewBox="0 0 53 60" fill="none" xmlns="http://www.w3.org/2000/svg">
<path d="M12.7788 27.3723C12.7788 35.2544 19.1707 41.6438 27.0557 41.6438C34.9407 41.6438 41.3326 35.2544 41.3326 27.3723C41.3326 19.4903 34.9407 13.1009 27.0557 13.1009C19.1745 13.1095 12.7879 19.4941 12.7788 27.3723ZM27.0557 15.0692C33.8533 15.0692 39.3635 20.5773 39.3635 27.3723C39.3635 34.1674 33.8533 39.6755 27.0557 39.6755C20.2581 39.6755 14.7479 34.1674 14.7479 27.3723C14.7556 20.5807 20.2615 15.0769 27.0557 15.0692Z" fill="#2F2F2F"/>
<path d="M46.1861 44.0701L38.4736 47.7127C37.4088 45.7328 35.3662 44.4728 33.1182 44.4094L25.9986 44.2138C24.8712 44.1816 23.7651 43.8962 22.7627 43.3786L22.0383 43.0033C18.3289 41.0705 13.9076 41.0753 10.2021 43.0158L10.2473 41.3752C10.2622 40.8317 9.83382 40.379 9.29011 40.3641L1.48297 40.1493C0.939254 40.1344 0.486882 40.5626 0.471979 41.1061L0.000377371 58.232C-0.0145253 58.7755 0.41381 59.2282 0.957522 59.2431L8.76467 59.4579H8.79159C9.3252 59.4579 9.76171 59.0336 9.77613 58.5007L9.79873 57.6813L11.827 56.5958C12.623 56.1676 13.5538 56.0657 14.4234 56.3117L26.5351 59.7097C26.5562 59.716 26.5774 59.7208 26.599 59.7256C27.4744 59.9087 28.3667 60.0005 29.2608 60C31.1549 60.001 33.0269 59.593 34.7484 58.8029C34.7907 58.7837 34.8316 58.7611 34.8705 58.7357L52.4313 47.3811C52.8688 47.0981 53.0101 46.5238 52.7539 46.0702C51.4501 43.7578 48.5585 42.8769 46.1861 44.0701ZM1.99591 57.3027L2.41319 42.1441L8.25172 42.3046L7.83444 57.4636L1.99591 57.3027ZM33.8615 57.0451C31.7227 58.01 29.3339 58.2763 27.035 57.8068L14.9561 54.4174C13.5965 54.0334 12.1414 54.1925 10.8977 54.861L9.86122 55.416L10.1386 45.3373C13.423 43.1537 17.6352 42.9293 21.133 44.7511L21.8575 45.1264C23.1238 45.7799 24.5203 46.1404 25.9447 46.1817L33.0649 46.3773C35.0647 46.4349 36.7632 47.8583 37.1689 49.8171L26.5634 49.5244C26.0197 49.5095 25.5673 49.9382 25.5519 50.4812C25.537 51.0247 25.9659 51.4774 26.5091 51.4923L38.2131 51.8142H38.2405C38.7736 51.8138 39.2096 51.3894 39.2241 50.857C39.2361 50.4293 39.2044 50.0011 39.1289 49.5802L47.0394 45.8438C47.0471 45.8405 47.0548 45.8366 47.0625 45.8328C48.1845 45.2653 49.5411 45.4551 50.4641 46.309L33.8615 57.0451Z" fill="#2F2F2F"/>
<path d="M28.0402 10.3338V0.984174C28.0402 0.440668 27.5994 0 27.0557 0C26.512 0 26.0711 0.440668 26.0711 0.984174V10.3338C26.0711 10.8773 26.512 11.318 27.0557 11.318C27.5994 11.318 28.0402 10.8773 28.0402 10.3338Z" fill="#2F2F2F"/>
<path d="M35.4243 10.3338V5.90504C35.4243 5.36154 34.9835 4.92087 34.4398 4.92087C33.8961 4.92087 33.4552 5.36154 33.4552 5.90504V10.3338C33.4552 10.8773 33.8961 11.318 34.4398 11.318C34.9835 11.318 35.4243 10.8773 35.4243 10.3338Z" fill="#2F2F2F"/>
<path d="M20.6561 10.3338V5.90504C20.6561 5.36154 20.2153 4.92087 19.6716 4.92087C19.1279 4.92087 18.687 5.36154 18.687 5.90504V10.3338C18.687 10.8773 19.1279 11.318 19.6716 11.318C20.2153 11.318 20.6561 10.8773 20.6561 10.3338Z" fill="#2F2F2F"/>
<path d="M24.44 33.852V31.926H23V30.18H24.44V28.776H23V26.544H24.44V21H28.544C30.2 21 31.406 21.336 32.162 22.008C32.93 22.68 33.314 23.604 33.314 24.78C33.314 25.476 33.158 26.13 32.846 26.742C32.534 27.354 32.012 27.846 31.28 28.218C30.56 28.59 29.576 28.776 28.328 28.776H27.158V30.18H29.93V31.926H27.158V33.852H24.44ZM27.158 26.544H28.058C28.826 26.544 29.432 26.412 29.876 26.148C30.332 25.884 30.56 25.458 30.56 24.87C30.56 23.778 29.84 23.232 28.4 23.232H27.158V26.544Z" fill="#2F2F2F"/>
</svg>
