<svg width="60" height="60" viewBox="0 0 60 60" fill="none" xmlns="http://www.w3.org/2000/svg">
<path d="M18.2659 41.7991L18.2314 41.7648C17.7728 41.3084 17.0309 41.31 16.5742 41.7688C16.1176 42.2276 16.1194 42.9695 16.5782 43.4261L16.6165 43.4641C16.845 43.6905 17.1431 43.8035 17.4411 43.8035C17.7429 43.8035 18.0446 43.6876 18.2738 43.4564C18.7293 42.9966 18.7257 42.2547 18.2659 41.7991Z" fill="white"/>
<path d="M43.4242 16.5761C36.0221 9.17402 23.9781 9.17402 16.5761 16.5761C10.5165 22.6356 9.26766 32.0483 13.5389 39.4661C13.8619 40.0269 14.5785 40.2197 15.1392 39.8968C15.7001 39.5739 15.893 38.8574 15.57 38.2965C11.8264 31.7953 12.9217 23.5451 18.2333 18.2333C24.7215 11.7451 35.2787 11.7451 41.7668 18.2333C48.255 24.7215 48.255 35.2786 41.7668 41.7668C36.4228 47.1108 28.1381 48.186 21.62 44.3816C21.0609 44.0552 20.3434 44.2439 20.0171 44.803C19.6909 45.362 19.8796 46.0797 20.4386 46.4059C23.4127 48.1418 26.7084 48.9872 29.9836 48.9872C34.8982 48.9872 39.7657 47.0825 43.4242 43.4241C50.8261 36.022 50.8261 23.9781 43.4242 16.5761Z" fill="white"/>
<path d="M59.9959 24.851C59.9957 24.2748 59.5765 23.7841 59.0074 23.694L54.6817 23.0086L52.3868 17.4742L54.9582 13.9288C55.2966 13.4624 55.2456 12.8191 54.838 12.4119L47.5699 5.14875C47.1622 4.74141 46.519 4.69078 46.0528 5.02957L42.5108 7.60266L36.9725 5.31105L36.2842 0.987539C36.1935 0.418711 35.7029 0 35.1268 0L24.851 0.00421875C24.2748 0.00445312 23.7843 0.423633 23.694 0.992695L23.0087 5.31844L17.4743 7.61332L13.9289 5.04187C13.4626 4.70355 12.8194 4.75453 12.412 5.16211L5.14887 12.4302C4.74152 12.8379 4.69102 13.4811 5.02969 13.9473L7.60277 17.4893L5.31117 23.0276L0.987656 23.7159C0.418594 23.8065 -0.000234277 24.2974 9.83175e-08 24.8736L0.00421885 35.1489C0.00445322 35.7251 0.423633 36.2157 0.992695 36.3059L5.31844 36.9913L7.61332 42.5257L5.04187 46.0711C4.70355 46.5375 4.75453 47.1807 5.16211 47.588L12.4302 54.8511C12.8379 55.2585 13.4812 55.3091 13.9473 54.9703L17.4893 52.3972L23.0276 54.6888L23.7159 59.0123C23.8065 59.5813 24.2971 60 24.8732 60L35.1489 59.9957C35.7251 59.9954 36.2156 59.5763 36.3059 59.0072L36.9913 54.6814L42.5257 52.3866L46.0711 54.958C46.5375 55.2964 47.1807 55.2454 47.588 54.8378L54.8511 47.5697C55.2585 47.162 55.309 46.5187 54.9703 46.0526L52.3972 42.5106L54.6888 36.9723L59.0123 36.2839C59.5814 36.1934 60.0002 35.7025 60 35.1262L59.9959 24.851ZM53.6727 34.7609C53.2702 34.825 52.93 35.0934 52.7741 35.4701L49.9809 42.2205C49.8251 42.5971 49.8762 43.0276 50.1157 43.3574L52.4863 46.6206L46.6375 52.4734L43.3709 50.1042C43.0411 49.8649 42.6105 49.8144 42.2339 49.9703L35.4877 52.7678C35.1113 52.9239 34.8429 53.2643 34.7791 53.6668L34.1476 57.6523L25.8734 57.6558L25.2391 53.6726C25.175 53.27 24.9066 52.9298 24.5299 52.774L17.7795 49.9808C17.6352 49.9211 17.483 49.8918 17.3316 49.8918C17.0878 49.8918 16.8461 49.9678 16.6427 50.1156L13.3795 52.4862L7.52672 46.6373L9.8959 43.3707C10.1352 43.0409 10.1858 42.6103 10.0297 42.2338L7.23234 35.4875C7.07625 35.1111 6.73582 34.8428 6.33328 34.779L2.34773 34.1475L2.34434 25.8732L6.32754 25.239C6.73008 25.1749 7.07027 24.9064 7.22613 24.5298L10.0193 17.7793C10.1752 17.4028 10.1241 16.9723 9.88453 16.6425L7.51395 13.3793L13.3628 7.52648L16.6294 9.89566C16.9594 10.135 17.3898 10.1858 17.7663 10.0296L24.5126 7.23211C24.889 7.07602 25.1573 6.73547 25.2211 6.33305L25.8525 2.3475L34.1269 2.3441L34.7611 6.3273C34.8252 6.72984 35.0937 7.07004 35.4703 7.2259L42.2208 10.0191C42.5973 10.1747 43.0279 10.1238 43.3576 9.8843L46.6208 7.51371L52.4736 13.3625L50.1045 16.6291C49.8652 16.959 49.8145 17.3896 49.9706 17.7661L52.768 24.5123C52.9241 24.8888 53.2645 25.1571 53.6671 25.2209L57.6526 25.8524L57.656 34.1266L53.6727 34.7609Z" fill="white"/>
<path d="M40.676 31.4599C39.2104 30.1283 37.2407 29.55 35.2963 29.8526L30.1498 24.7061C30.4628 22.6675 29.7905 20.5696 28.3168 19.0958C26.4693 17.2482 23.7069 16.6823 21.2795 17.6539C20.9138 17.8003 20.6461 18.1206 20.567 18.5064C20.4878 18.8921 20.6078 19.292 20.8863 19.5705L22.5855 21.2698C22.9452 21.6294 22.9452 22.2146 22.5855 22.5744C22.2259 22.9342 21.6407 22.9342 21.2809 22.5744L19.5758 20.8692C19.2979 20.5912 18.8994 20.471 18.514 20.5494C18.1288 20.6276 17.8084 20.8937 17.661 21.258C16.6392 23.7813 17.3078 26.7076 19.3245 28.5398C20.7916 29.8731 22.7629 30.4513 24.7093 30.1466L29.8512 35.2886C29.5362 37.3288 30.2081 39.4287 31.6834 40.9041C32.9318 42.1525 34.5952 42.8155 36.2916 42.8154C37.1143 42.8154 37.9452 42.6593 38.7397 42.3383C39.1043 42.1911 39.3708 41.8707 39.4492 41.4854C39.5276 41.1001 39.4076 40.7012 39.1295 40.4231L37.438 38.7315C37.0784 38.3719 37.0784 37.7866 37.438 37.4269C37.7977 37.0671 38.3829 37.0671 38.7427 37.4269L40.4307 39.115C40.7091 39.3933 41.1087 39.5135 41.4945 39.4344C41.8802 39.3554 42.2004 39.0881 42.347 38.7227C43.3574 36.2046 42.6859 33.2859 40.676 31.4599ZM40.3998 35.7697C39.1262 34.4963 37.054 34.4961 35.7805 35.7697C34.507 37.0433 34.507 39.1154 35.7805 40.3889L35.8377 40.4462C34.9124 40.3447 34.0281 39.9343 33.3405 39.2468C32.2893 38.1955 31.8748 36.6485 32.259 35.2095C32.367 34.8053 32.2513 34.3744 31.9555 34.0786L25.9189 28.042C25.6963 27.8194 25.397 27.6988 25.0902 27.6988C24.9901 27.6988 24.8891 27.7116 24.7898 27.7379C23.402 28.1065 21.9479 27.7575 20.9002 26.8055C20.1306 26.106 19.6671 25.1582 19.5561 24.1644L19.6235 24.2318C20.8971 25.5053 22.9692 25.5054 24.2428 24.2318C25.5163 22.9582 25.5163 20.8861 24.2428 19.6126L24.1874 19.5572C25.1038 19.6634 25.9788 20.0725 26.6595 20.7533C27.7096 21.8034 28.1243 23.349 27.7419 24.7869C27.6345 25.1907 27.7502 25.6213 28.0458 25.9168L34.0859 31.9569C34.3809 32.2519 34.8103 32.3679 35.2139 32.2612C36.6004 31.8949 38.0531 32.2439 39.0998 33.1948C39.8624 33.8876 40.3246 34.8257 40.4406 35.8105L40.3998 35.7697Z" fill="white"/>
<path d="M40.7043 21.6315C38.7729 19.1644 36.0349 17.4289 32.9945 16.7448C32.3633 16.6027 31.736 16.9993 31.594 17.6309C31.452 18.2624 31.8485 18.8893 32.48 19.0314C34.9945 19.5971 37.2599 21.0336 38.8588 23.0763C39.09 23.3716 39.4344 23.5259 39.7823 23.5259C40.035 23.5259 40.2895 23.4445 40.5039 23.2767C41.0135 22.8778 41.1033 22.1412 40.7043 21.6315Z" fill="white"/>
<path d="M42.9431 25.8573L42.926 25.8043C42.7271 25.1884 42.0668 24.8507 41.4507 25.0493C40.8348 25.2482 40.4967 25.9086 40.6957 26.5246L40.7106 26.5705C40.8696 27.0684 41.3305 27.3861 41.8266 27.3861C41.9447 27.3861 42.0649 27.3681 42.1834 27.3302C42.7999 27.1332 43.1401 26.4738 42.9431 25.8573Z" fill="white"/>
</svg>
