<svg width="60" height="60" viewBox="0 0 60 60" fill="none" xmlns="http://www.w3.org/2000/svg">
<path d="M21.2953 42.986C21.2106 42.9619 21.1239 42.9483 21.0366 42.9436C22.3202 41.5944 23.1108 39.7718 23.1108 37.767V31.6016C23.1108 31.5452 23.1054 31.4903 23.0978 31.4361C23.1055 31.3248 23.1108 31.2128 23.1108 31.0996V27.1989C23.1108 26.5516 22.5861 26.027 21.9389 26.027H14.0788C10.7688 26.027 8.07609 28.7198 8.07609 32.0297V37.767C8.07609 39.7718 8.86652 41.5944 10.1503 42.9436C10.0631 42.9483 9.97641 42.9619 9.8918 42.986C4.35387 43.4875 0 48.1552 0 53.8214V58.8281C0 59.4754 0.524648 60 1.17188 60H30.0149C30.6621 60 31.1868 59.4754 31.1868 58.8281V53.8214C31.1868 48.1553 26.8331 43.4876 21.2953 42.986ZM10.4198 32.0296C10.4198 30.0121 12.0613 28.3706 14.0788 28.3706H20.767V31.0995C20.767 32.4732 19.6494 33.5909 18.2756 33.5909H10.4198V32.0296ZM10.4198 35.9346H18.2756C19.1864 35.9346 20.0389 35.6813 20.767 35.2416V37.7668C20.767 40.6195 18.4461 42.9404 15.5934 42.9404C12.7407 42.9404 10.4198 40.6195 10.4198 37.7668V35.9346ZM18.144 45.2843L15.5934 47.835L13.0429 45.2843H18.144ZM28.8431 57.6562H2.34375V55.3125H7.20703C7.85426 55.3125 8.37891 54.7879 8.37891 54.1406C8.37891 53.4934 7.85426 52.9688 7.20703 52.9688H2.38652C2.78016 49.0177 5.87941 45.8535 9.79922 45.3552L14.7648 50.3208C14.9845 50.5405 15.2827 50.664 15.5934 50.664C15.9042 50.664 16.2023 50.5405 16.4221 50.3208L21.3877 45.3552C25.5858 45.8888 28.8431 49.4807 28.8431 53.8214V57.6562Z" fill="white"/>
<path d="M50.1088 16.9591C50.0241 16.935 49.9372 16.9214 49.8498 16.9167C51.1335 15.5675 51.9239 13.7449 51.9239 11.7401V5.57461C51.9239 5.51824 51.9185 5.46328 51.9109 5.40914C51.9186 5.29781 51.9239 5.18578 51.9239 5.07258V1.17188C51.9239 0.524648 51.3993 0 50.752 0H42.8919C39.582 0 36.8892 2.69285 36.8892 6.0027V11.74C36.8892 13.7448 37.6796 15.5674 38.9633 16.9166C38.876 16.9213 38.7891 16.9349 38.7043 16.959C33.1666 17.4607 28.8131 22.1284 28.8131 27.7944V32.801C28.8131 33.4482 29.3378 33.9729 29.985 33.9729H39.4139C40.0611 33.9729 40.5858 33.4482 40.5858 32.801C40.5858 32.1538 40.0611 31.6291 39.4139 31.6291H31.1569V27.7945C31.1569 23.4538 34.4141 19.8619 38.6122 19.3283L43.5778 24.2939C43.8067 24.5228 44.1066 24.6371 44.4064 24.6371C44.7063 24.6371 45.0063 24.5228 45.2351 24.2939L50.2007 19.3283C54.399 19.862 57.6562 23.4538 57.6562 27.7945V31.6293H49.0234C48.3762 31.6293 47.8515 32.1539 47.8515 32.8011C47.8515 33.4484 48.3762 33.973 49.0234 33.973H58.8281C59.4754 33.973 60 33.4484 60 32.8011V27.7945C60 22.1285 55.6464 17.4608 50.1088 16.9591ZM44.4067 21.808L41.8561 19.2574H46.9573L44.4067 21.808ZM49.5803 11.74C49.5803 14.5927 47.2594 16.9136 44.4067 16.9136C41.554 16.9136 39.2331 14.5928 39.2331 11.7401V9.90773H47.0889C47.9996 9.90773 48.8522 9.65426 49.5803 9.21469V11.74ZM49.5803 5.07258C49.5803 6.44637 48.4627 7.56398 47.0889 7.56398H39.2331V6.0027C39.2331 3.9852 40.8745 2.34375 42.892 2.34375H49.5803V5.07258Z" fill="white"/>
<path d="M45.2355 31.9723C45.0176 31.7543 44.7152 31.6289 44.407 31.6289C44.0977 31.6289 43.7965 31.7543 43.5785 31.9723C43.3594 32.1902 43.2352 32.4926 43.2352 32.8008C43.2352 33.1102 43.3594 33.4113 43.5785 33.6293C43.7965 33.8484 44.0977 33.9727 44.407 33.9727C44.7152 33.9727 45.0176 33.8484 45.2355 33.6293C45.4535 33.4113 45.5789 33.1102 45.5789 32.8008C45.5789 32.4926 45.4535 32.1902 45.2355 31.9723Z" fill="white"/>
<path d="M31.3365 16.3979L26.4356 11.497V5.85938C26.4356 2.62852 23.8071 0 20.5763 0H5.85938C2.62852 0 0 2.62852 0 5.85938V16.1719C0 19.4027 2.62852 22.0312 5.85938 22.0312H20.5761C22.9989 22.0312 25.1115 20.5773 25.9979 18.3984H30.5078C30.9817 18.3984 31.4091 18.1129 31.5905 17.675C31.7719 17.2372 31.6716 16.7331 31.3365 16.3979ZM25.143 16.0547C24.5971 16.0547 24.1234 16.4317 24.0009 16.9638C23.632 18.5674 22.2238 19.6875 20.5761 19.6875H5.85938C3.92086 19.6875 2.34375 18.1104 2.34375 16.1719V5.85938C2.34375 3.92086 3.92086 2.34375 5.85938 2.34375H20.5761C22.5146 2.34375 24.0918 3.92086 24.0918 5.85938V11.9824C24.0918 12.2932 24.2153 12.5913 24.435 12.8111L27.6786 16.0547H25.143Z" fill="white"/>
<path d="M54.1406 37.9688H39.4239C37.0011 37.9688 34.8885 39.4227 34.0021 41.6016H29.4922C29.0183 41.6016 28.5909 41.8871 28.4095 42.325C28.2281 42.7628 28.3284 43.2669 28.6635 43.6021L33.5644 48.503V54.1406C33.5644 57.3715 36.1929 60 39.4237 60H54.1406C57.3715 60 60 57.3715 60 54.1406V43.8281C60 40.5973 57.3715 37.9688 54.1406 37.9688ZM57.6562 54.1406C57.6562 56.0791 56.0791 57.6562 54.1406 57.6562H39.4239C37.4854 57.6562 35.9082 56.0791 35.9082 54.1406V48.0176C35.9082 47.7068 35.7847 47.4087 35.565 47.1889L32.3214 43.9453H34.857C35.4029 43.9453 35.8766 43.5683 35.9991 43.0362C36.368 41.4326 37.7762 40.3125 39.4239 40.3125H54.1406C56.0791 40.3125 57.6562 41.8896 57.6562 43.8281V54.1406Z" fill="white"/>
<path d="M52.0495 45.8662C51.592 45.4086 50.85 45.4086 50.3924 45.8662L47.2772 48.9814L45.8286 47.5329C45.371 47.0753 44.629 47.0753 44.1712 47.5329C43.7136 47.9905 43.7136 48.7325 44.1712 49.1903L46.4484 51.4675C46.6773 51.6963 46.9772 51.8107 47.2771 51.8107C47.577 51.8107 47.877 51.6963 48.1057 51.4675L52.0495 47.5236C52.5071 47.066 52.5071 46.324 52.0495 45.8662Z" fill="white"/>
<path d="M18.5453 7.76578C18.4068 5.75637 16.787 4.1366 14.7776 3.99809C13.6382 3.91969 12.5521 4.30406 11.72 5.08078C10.8996 5.8466 10.429 6.92941 10.429 8.05137C10.4291 8.69871 10.9538 9.22336 11.601 9.22336C12.2482 9.22336 12.7729 8.69871 12.7729 8.05148C12.7729 7.56973 12.9669 7.12324 13.3194 6.79418C13.6713 6.46559 14.1325 6.30246 14.6166 6.33645C15.4649 6.39492 16.1487 7.07871 16.2071 7.92703C16.2663 8.78473 15.7041 9.5427 14.8703 9.72926C13.9576 9.9334 13.3202 10.7269 13.3202 11.6587V12.2839C13.3202 12.9312 13.8449 13.4558 14.4921 13.4558C15.1393 13.4558 15.664 12.9312 15.664 12.2839V11.9429C17.4797 11.4013 18.6779 9.68953 18.5453 7.76578Z" fill="white"/>
<path d="M15.3211 15.9398C15.1031 15.7219 14.8008 15.5965 14.4926 15.5965C14.1832 15.5965 13.882 15.7219 13.6641 15.9398C13.4449 16.1578 13.3207 16.4602 13.3207 16.7684C13.3207 17.0766 13.4449 17.3789 13.6641 17.5969C13.882 17.8148 14.1832 17.9402 14.4926 17.9402C14.8008 17.9402 15.1031 17.8148 15.3211 17.5969C15.5391 17.3789 15.6645 17.0766 15.6645 16.7684C15.6645 16.4602 15.5391 16.1578 15.3211 15.9398Z" fill="white"/>
<path d="M12.723 53.3121C12.5051 53.0941 12.2027 52.9688 11.8945 52.9688C11.5863 52.9688 11.284 53.0941 11.066 53.3121C10.848 53.5301 10.7227 53.8324 10.7227 54.1406C10.7227 54.4488 10.848 54.7512 11.066 54.9691C11.284 55.1871 11.5863 55.3125 11.8945 55.3125C12.2027 55.3125 12.5051 55.1871 12.723 54.9691C12.941 54.7512 13.0664 54.4488 13.0664 54.1406C13.0664 53.8324 12.941 53.5301 12.723 53.3121Z" fill="white"/>
</svg>
