<svg width="74" height="60" viewBox="0 0 74 60" fill="none" xmlns="http://www.w3.org/2000/svg">
<path d="M70.3424 46.1681V45.0803C70.3424 43.3368 68.9082 41.9184 67.1455 41.9184H56.3033V40.6794C56.3033 38.3867 54.4175 36.5216 52.0997 36.5216H49.8486V32.5544C49.8486 32.2528 49.7536 31.9733 49.5923 31.7427L61.1 14.2506V20.3978C59.6192 20.8841 58.5064 22.1856 58.3301 23.7986L58.0234 26.6039C57.9581 27.2026 58.1538 27.803 58.5605 28.2512C58.9672 28.6994 59.5498 28.9564 60.1587 28.9564H61.4274V30.8714C59.4657 31.4806 58.0387 33.2958 58.0387 35.4346C58.0387 38.0709 60.2073 40.2158 62.8727 40.2158C64.3453 40.2158 65.7194 39.564 66.6425 38.4276C67.1424 37.8122 67.0432 36.9123 66.421 36.4178C65.7989 35.9235 64.8892 36.0214 64.389 36.637C64.0175 37.0944 63.4647 37.3567 62.8727 37.3567C61.8012 37.3567 60.9293 36.4944 60.9293 35.4346C60.9293 34.3745 61.8012 33.5124 62.8727 33.5124C63.6708 33.5124 64.318 32.8724 64.318 32.0828V28.9564H65.0489C65.6577 28.9564 66.2401 28.6994 66.647 28.2512C67.0536 27.803 67.2494 27.2028 67.1841 26.6039L66.8775 23.7986C66.6966 22.1434 65.5296 20.8168 63.9908 20.3618V9.85656L65.9394 6.89452C66.5967 5.89555 66.8213 4.70316 66.5717 3.53707C66.3222 2.37113 65.6288 1.37087 64.6186 0.720711C62.5334 -0.620925 59.7336 -0.0352366 58.3768 2.02718L39.2341 31.1247H38.6404C35.6635 31.1247 33.2415 33.5202 33.2415 36.4647V41.9183H27.1916V26.7865C27.1916 24.8777 25.6217 23.3248 23.6918 23.3248H13.1762C11.2705 23.3248 9.5428 24.4393 8.77462 26.1642L2.65648 39.9015C2.58754 40.0564 2.52337 40.2131 2.4618 40.3708C2.43766 40.4327 2.41497 40.4952 2.39199 40.5575C2.35817 40.6493 2.32507 40.7415 2.29371 40.8341C2.2661 40.9156 2.23879 40.9972 2.2132 41.0794C2.19311 41.1436 2.17461 41.2081 2.15582 41.2726C2.04757 41.6417 1.95926 42.0155 1.89133 42.3933C1.88916 42.4056 1.88671 42.4178 1.88454 42.4301C1.86098 42.5645 1.84002 42.6994 1.82138 42.8349C1.81907 42.8518 1.8169 42.8688 1.81473 42.8857C1.79797 43.0126 1.78351 43.14 1.77094 43.2677C1.77007 43.2768 1.76863 43.2858 1.76776 43.295C1.76718 43.301 1.76747 43.3068 1.76704 43.3128C1.73553 43.6441 1.71746 43.9776 1.71746 44.3138V47.764C0.694182 48.3261 0 49.4059 0 50.6433V54.3674C0 56.1824 1.49286 57.6591 3.32783 57.6591H6.44767C7.24577 57.6591 7.89298 57.0191 7.89298 56.2296V54.4335H9.36676C10.0358 57.6078 12.8861 60 16.2911 60C19.6961 60 22.5464 57.6078 23.2154 54.4335H28.5122V55.4364C28.5122 57.0836 29.867 58.4236 31.5323 58.4236H47.5637C48.1723 58.4236 48.7237 58.1163 49.0389 57.6014C49.3543 57.0864 49.374 56.4607 49.0923 55.9278C48.8398 55.4497 48.6548 54.9472 48.5342 54.4333H49.993C50.662 57.6076 53.5123 59.9999 56.9173 59.9999C60.3223 59.9999 63.1726 57.6076 63.8416 54.4333H65.2V54.7398C65.2 55.5294 65.8472 56.1694 66.6453 56.1694H70.3155C72.3471 56.1694 74 54.5345 74 52.525V49.8117C74 47.8111 72.3616 46.1825 70.3424 46.1681ZM5.00236 54.8H3.32783C3.10077 54.8 2.91562 54.6272 2.89467 54.4079C2.89351 54.3943 2.89062 54.3813 2.89062 54.3674V50.6433C2.89062 50.4048 3.08675 50.2107 3.32783 50.2107H5.00236V54.8ZM20.2161 54.4335C19.6264 56.0123 18.0896 57.1409 16.2911 57.1409C14.4926 57.1409 12.9558 56.0121 12.3661 54.4335C12.1996 53.9877 12.1084 53.5061 12.1084 53.0039C12.1084 52.5017 12.1996 52.0201 12.3661 51.5744C12.9558 49.9956 14.4926 48.8669 16.2911 48.8669C18.0896 48.8669 19.6264 49.9956 20.2161 51.5744C20.3826 52.0201 20.4738 52.5017 20.4738 53.0039C20.4738 53.5061 20.3826 53.9876 20.2161 54.4335ZM24.301 51.5744H23.2153C22.5463 48.4 19.696 46.0078 16.291 46.0078C12.8859 46.0078 10.0357 48.4 9.36662 51.5744H7.89298V48.7812C7.89298 47.9916 7.24577 47.3516 6.44767 47.3516H4.60808V44.8575H16.3889C18.2084 44.8575 19.6886 43.3933 19.6886 41.5938V39.7678C19.6886 38.9783 19.0414 38.3383 18.2433 38.3383C17.4452 38.3383 16.798 38.9783 16.798 39.7678V41.5938C16.798 41.8169 16.6144 41.9984 16.3889 41.9984H4.95235C4.95582 41.9869 4.959 41.9755 4.96247 41.964C5.00077 41.839 5.04297 41.7152 5.08735 41.5921C5.09905 41.5598 5.1096 41.5272 5.12174 41.495C5.17753 41.3465 5.23694 41.1992 5.30169 41.054L11.4198 27.317C11.7264 26.6288 12.4158 26.1841 13.176 26.1841H16.7978V28.3312C16.7978 29.1208 17.445 29.7608 18.2431 29.7608C19.0412 29.7608 19.6884 29.1208 19.6884 28.3312V26.1841H23.6918C24.0277 26.1841 24.301 26.4544 24.301 26.7866V51.5744ZM49.8486 39.3807H52.0997C52.8238 39.3807 53.4127 39.9634 53.4127 40.6794V41.9184H49.8486V39.3807ZM64.0032 24.1058L64.2209 26.0971H60.9861L61.204 24.1059C61.2697 23.5044 61.7805 23.0508 62.3921 23.0508H62.8152C63.4267 23.0508 63.9375 23.5044 64.0032 24.1058ZM60.7996 3.58639C61.0357 3.22743 61.3988 2.98098 61.8224 2.89249C62.246 2.804 62.6792 2.88363 63.042 3.11721C63.4049 3.35066 63.6539 3.71005 63.7435 4.12891C63.795 4.36922 63.7885 4.6121 63.7306 4.84369L61.0999 9.00797L46.5498 31.1247H42.6829L60.7996 3.58639ZM37.7252 34.1574C38.0092 34.0467 38.3172 33.9838 38.6405 33.9838H46.958V41.9183H36.1325V36.4647C36.1325 35.4164 36.7941 34.5201 37.7252 34.1574ZM31.5323 55.5647C31.4609 55.5647 31.4028 55.5072 31.4028 55.4366V50.5715C31.4028 50.5009 31.4609 50.4434 31.5323 50.4434H45.8447C45.7352 50.8158 45.6517 51.1938 45.591 51.5745C45.4403 52.5213 45.4403 53.4862 45.5911 54.4335C45.6518 54.8142 45.7354 55.1921 45.8448 55.5647H31.5323ZM60.8423 54.4335C60.2527 56.0123 58.7159 57.1409 56.9173 57.1409C55.1188 57.1409 53.582 56.0121 52.9923 54.4335C52.8258 53.9877 52.7346 53.5061 52.7346 53.0039C52.7346 52.5017 52.8258 52.0201 52.9923 51.5744C53.582 49.9956 55.1188 48.8669 56.9173 48.8669C58.7159 48.8669 60.2527 49.9956 60.8423 51.5744C61.0088 52.0201 61.1 52.5017 61.1 53.0039C61.1 53.5061 61.0087 53.9876 60.8423 54.4335ZM67.4516 46.1674H66.6451C65.847 46.1674 65.1998 46.8074 65.1998 47.5969V51.5744H63.8415C63.1725 48.4 60.3222 46.0078 56.9172 46.0078C53.5122 46.0078 50.6619 48.4 49.9928 51.5744H48.5341C48.6548 51.0606 48.8396 50.5582 49.0921 50.0803C49.374 49.547 49.3542 48.9211 49.0389 48.4063C48.7237 47.8915 48.1722 47.5842 47.5637 47.5842H31.5323C29.867 47.5842 28.5122 48.9243 28.5122 50.5714V51.5744H27.1918V44.7775H67.1453C67.3143 44.7775 67.4516 44.9133 67.4516 45.0803V46.1674ZM71.1092 52.525C71.1092 52.958 70.7531 53.3103 70.3153 53.3103H68.0904V49.0265H70.3153C70.3244 49.0265 70.3333 49.0275 70.3424 49.0279C70.7676 49.042 71.1092 49.3877 71.1092 49.8117V52.525Z" fill="white"/>
<path d="M19.5782 33.5029C19.542 33.4157 19.4971 33.3328 19.4452 33.2556C19.3917 33.177 19.3325 33.1041 19.2645 33.0383C19.198 32.9726 19.1242 32.9125 19.0447 32.8611C18.9667 32.8096 18.8828 32.7653 18.7961 32.7296C18.7079 32.6938 18.6169 32.6667 18.5258 32.6481C18.3394 32.6109 18.1472 32.6109 17.9607 32.6481C17.8682 32.6667 17.7772 32.6938 17.6904 32.7296C17.6037 32.7653 17.5186 32.8096 17.4406 32.8611C17.3611 32.9125 17.2872 32.9726 17.2207 33.0383C17.1542 33.1041 17.0935 33.177 17.0416 33.2556C16.9896 33.3328 16.9448 33.4157 16.9087 33.5029C16.8725 33.5887 16.8451 33.6788 16.8263 33.7703C16.8075 33.8618 16.7974 33.9561 16.7974 34.049C16.7974 34.4264 16.952 34.7938 17.2209 35.0597C17.2874 35.1255 17.3612 35.1855 17.4407 35.2384C17.5187 35.2899 17.604 35.3342 17.6906 35.3699C17.7775 35.4057 17.8684 35.4328 17.9609 35.4514C18.0535 35.47 18.1488 35.4786 18.2427 35.4786C18.3366 35.4786 18.4322 35.47 18.526 35.4514C18.617 35.4328 18.7081 35.4057 18.7963 35.3699C18.883 35.3342 18.9668 35.2899 19.0448 35.2384C19.1243 35.1855 19.1982 35.1255 19.2647 35.0597C19.535 34.7938 19.6895 34.4264 19.6895 34.049C19.6893 33.9561 19.6793 33.8618 19.6605 33.7703C19.6416 33.6788 19.6143 33.5887 19.5782 33.5029Z" fill="white"/>
</svg>
