<svg width="60" height="60" viewBox="0 0 60 60" fill="none" xmlns="http://www.w3.org/2000/svg">
<path d="M53.5951 47.8167C54.2382 46.928 54.6187 45.8373 54.6187 44.659V37.6172C54.6187 36.97 54.094 36.4453 53.4469 36.4453H48.2095C45.7884 36.4453 43.8188 38.415 43.8188 40.8361V44.659C43.8188 45.8366 44.1988 46.9264 44.8411 47.815C44.04 47.9449 43.2693 48.2016 42.5504 48.5773C40.9222 46.1477 38.2547 44.4722 35.1893 44.1895C35.1773 44.1861 35.1652 44.1837 35.1531 44.1807C36.2498 42.956 36.9184 41.3402 36.9184 39.5707V30C36.9184 29.3528 36.3936 28.8281 35.7465 28.8281H28.6283C25.5698 28.8281 23.0816 31.3164 23.0816 34.3748V39.5706C23.0816 41.3401 23.7502 42.9559 24.8469 44.1806C24.8348 44.1836 24.8227 44.1861 24.8107 44.1894C21.745 44.4721 19.0773 46.1479 17.4492 48.5777C16.7302 48.2021 15.9593 47.9453 15.1586 47.8153C15.801 46.9268 16.1812 45.8367 16.1812 44.659V37.6172C16.1812 36.97 15.6565 36.4453 15.0094 36.4453H9.77203C7.35094 36.4453 5.38125 38.415 5.38125 40.8361V44.659C5.38125 45.8374 5.76176 46.928 6.40488 47.8167C2.77758 48.4096 0 51.5641 0 55.3564V58.8281C0 59.4754 0.524766 60 1.17188 60H58.8281C59.4752 60 60 59.4754 60 58.8281V55.3564C60 51.5641 57.2224 48.4096 53.5951 47.8167ZM7.725 40.8361C7.725 39.7073 8.64328 38.7891 9.77203 38.7891H13.8375V40.2163C13.8375 40.9161 13.2682 41.4854 12.5685 41.4854H7.725V40.8361ZM7.725 43.8291H12.5685C13.015 43.8291 13.4425 43.7472 13.8375 43.5983V44.659C13.8375 46.3441 12.4665 47.7152 10.7812 47.7152C9.09598 47.7152 7.725 46.3441 7.725 44.659V43.8291ZM11.5368 50.059L10.7812 50.8145L10.0257 50.059H11.5368ZM15.7678 54.1097V57.6562H2.34375V55.3564C2.34375 52.728 4.26832 50.5416 6.78199 50.1298L9.95262 53.3004C10.1725 53.5201 10.4705 53.6436 10.7812 53.6436C11.092 53.6436 11.39 53.5201 11.6099 53.3004L14.7814 50.1287C15.3416 50.2199 15.8803 50.4005 16.3823 50.6646C15.9853 51.7388 15.7678 52.8993 15.7678 54.1097ZM30.0001 44.1454C27.4777 44.1454 25.4255 42.0932 25.4255 39.5707V38.0218H32.4291C33.2057 38.0218 33.9369 37.8234 34.5748 37.4749V39.5707C34.5748 42.0932 32.5226 44.1454 30.0001 44.1454ZM32.0428 46.489L30 48.5318L27.9572 46.489H32.0428ZM25.4252 34.3748C25.4252 32.6087 26.8622 31.1719 28.6283 31.1719H34.5746V33.5325C34.5746 34.7156 33.6121 35.6782 32.4289 35.6782H25.4252V34.3748ZM41.8883 57.6562H18.1117V55.3125H25.7422C26.3893 55.3125 26.9141 54.7879 26.9141 54.1406C26.9141 53.4934 26.3893 52.9688 25.7422 52.9688H18.1973C18.6996 49.6382 21.3656 47.0091 24.7129 46.5592L29.1714 51.0177C29.4002 51.2466 29.7001 51.3609 30 51.3609C30.2999 51.3609 30.5998 51.2466 30.8286 51.0177L35.2871 46.5592C39.0086 47.0593 41.8883 50.2535 41.8883 54.1097V57.6562ZM46.1625 40.8361C46.1625 39.7073 47.0808 38.7891 48.2095 38.7891H52.275V40.2163C52.275 40.9161 51.7057 41.4854 51.006 41.4854H46.1625V40.8361ZM46.1625 43.8291H51.006C51.4525 43.8291 51.88 43.7472 52.275 43.5983V44.659C52.275 46.3441 50.904 47.7152 49.2188 47.7152C47.5335 47.7152 46.1625 46.3441 46.1625 44.659V43.8291ZM49.9743 50.059L49.2188 50.8145L48.4632 50.059H49.9743ZM44.2321 57.6562V54.1097C44.2321 52.8991 44.0146 51.7386 43.6174 50.6644C44.1192 50.4 44.6578 50.2195 45.2181 50.1285L48.39 53.3004C48.6098 53.5201 48.9079 53.6436 49.2186 53.6436C49.5294 53.6436 49.8274 53.5201 50.0473 53.3004L53.2179 50.1298C55.7316 50.5417 57.6561 52.728 57.6561 55.3564V57.6562H44.2321Z" fill="white"/>
<path d="M35.7755 7.6568C35.3177 7.19918 34.5759 7.19918 34.1181 7.6568L28.3677 13.4073L25.8818 10.9214C25.4241 10.4637 24.6823 10.4637 24.2245 10.9213C23.7669 11.3789 23.7669 12.1209 24.2245 12.5787L27.5391 15.8932C27.7589 16.1129 28.0569 16.2364 28.3677 16.2364C28.6785 16.2364 28.9765 16.1129 29.1963 15.8932L35.7755 9.31406C36.2331 8.85645 36.2331 8.11441 35.7755 7.6568Z" fill="white"/>
<path d="M34.7916 1.01625C34.2006 0.752695 33.5077 1.01813 33.244 1.60922C32.9803 2.20031 33.2459 2.89324 33.837 3.1568C37.2353 4.67238 39.4311 8.05523 39.4311 11.775C39.4311 16.9753 35.2003 21.2061 30 21.2061C24.7997 21.2061 20.5689 16.9753 20.5689 11.775C20.5689 8.07445 22.7489 4.69863 26.1227 3.17484C26.7125 2.90848 26.9748 2.21426 26.7083 1.62445C26.442 1.03453 25.7474 0.772383 25.158 1.03875C20.9466 2.94094 18.2252 7.15512 18.2252 11.7749C18.2251 18.2677 23.5073 23.5499 30 23.5499C36.4927 23.5499 41.7749 18.2677 41.7749 11.775C41.7749 7.13121 39.0337 2.90812 34.7916 1.01625Z" fill="white"/>
<path d="M30.042 0H30C29.3529 0 28.8281 0.524648 28.8281 1.17188C28.8281 1.8191 29.3529 2.34375 30 2.34375H30.0309C30.0328 2.34375 30.0346 2.34375 30.0366 2.34375C30.6812 2.34375 31.2053 1.82273 31.2083 1.17738C31.2114 0.530156 30.6892 0.00304688 30.042 0Z" fill="white"/>
<path d="M30.8284 53.3121C30.6105 53.0941 30.3082 52.9688 30 52.9688C29.6918 52.9688 29.3895 53.0941 29.1715 53.3121C28.9535 53.5301 28.8281 53.8324 28.8281 54.1406C28.8281 54.4488 28.9534 54.7512 29.1715 54.9691C29.3896 55.1871 29.6918 55.3125 30 55.3125C30.3082 55.3125 30.6105 55.1871 30.8284 54.9691C31.0464 54.7512 31.1719 54.4488 31.1719 54.1406C31.1719 53.8324 31.0465 53.5301 30.8284 53.3121Z" fill="white"/>
</svg>
